<?xml version="1.0" encoding="utf-8"?>
<!-- Generator: Adobe Illustrator 16.0.0, SVG Export Plug-In . SVG Version: 6.00 Build 0)  -->
<!DOCTYPE svg PUBLIC "-//W3C//DTD SVG 1.1//EN" "http://www.w3.org/Graphics/SVG/1.1/DTD/svg11.dtd">
<svg version="1.1" id="Layer_1" xmlns="http://www.w3.org/2000/svg" xmlns:xlink="http://www.w3.org/1999/xlink" x="0px" y="0px"
	 width="50px" height="50px" viewBox="0 0 50 50" enable-background="new 0 0 50 50" xml:space="preserve">
<g id="Layer_1_1_" display="none">
	<g id="Layer_3" display="inline">
		<path opacity="0.5" enable-background="new    " d="M44.262,31.154l-4.213-0.678l-5.574,1.342l-8.283,2.053l-9.104-1.696
			l-5.625-2.102l-5.651-2.345c0,0,0.272,7.094,3.261,8.996c2.989,1.902,8.695,3.26,14.81,2.989
			c6.113-0.272,15.488-2.989,16.032-3.938C40.459,34.823,44.262,31.154,44.262,31.154z"/>
		<path d="M5.812,27.729c0.45-0.873,0.769-1.852,1.37-2.604c3.814-4.788,7.565-9.677,13.672-11.806
			c7.134-2.489,13.796-1.838,18.477,4.513c1.913,2.591,3.379,5.531,4.86,8.409c0.651,1.269,0.957,2.757,1.195,4.184
			c0.137,0.812-0.023,2.009-1.385,1.444c-2.674-1.107-5.107-0.09-7.562,0.689c-5.616,1.781-11.327,2.625-17.098,1.077
			c-3.314-0.889-6.519-2.22-9.727-3.471c-1.33-0.519-2.539-1.349-3.803-2.034C5.812,27.998,5.812,27.865,5.812,27.729z
			 M20.862,19.09c-2.629,1.364-5.218,2.914-7.523,4.76c-2.71,2.167-2.23,4.792,0.905,6.261c7.616,3.572,15.33,4.1,23.13,0.586
			c3.853-1.735,4.524-4.956,1.237-7.612c-3.43-2.771-6.963-5.68-11.995-5.895C24.69,17.803,22.632,18.17,20.862,19.09z
			 M42.536,26.879c-0.203-0.041-0.405-0.081-0.606-0.119c-0.224,0.689-0.812,1.567-0.576,2.02c0.289,0.558,1.266,0.754,1.941,1.106
			c0.148-0.206,0.297-0.413,0.445-0.618C43.338,28.471,42.938,27.677,42.536,26.879z"/>
		<path d="M11.288,13.477c2.653-1.675,5.261-3.422,7.966-5.008c4.738-2.779,9.508-1.707,13.881,0.68
			c3.159,1.725,5.879,4.266,8.783,6.456c0.439,0.333,0.831,0.73,1.247,1.1c0.147-0.162,0.296-0.322,0.446-0.483
			c-1.771-1.703-3.494-3.453-5.315-5.097c-2.995-2.702-6.241-4.91-10.354-5.666c-3.758-0.688-7.179-0.095-10.235,2.154
			c-2.326,1.711-4.526,3.591-6.781,5.397C11.048,13.166,11.168,13.321,11.288,13.477z"/>
	</g>
	<g id="Layer_2" display="inline">
		<path d="M0,0v50h50V0H0z M39.553,35.104c-9.572,4.313-19.034,3.664-28.375-0.717c-3.848-1.803-4.436-5.021-1.11-7.682
			c2.828-2.265,6.005-4.166,9.229-5.84c2.171-1.127,4.693-1.578,7.059-2.331c6.172,0.267,10.506,3.834,14.713,7.231
			C45.102,29.023,44.275,32.977,39.553,35.104z"/>
	</g>
	<g id="Layer_4" display="inline">
		<path d="M19.296,20.866c2.171-1.127,4.693-1.578,7.06-2.331c6.172,0.267,10.506,3.834,14.713,7.232
			c4.033,3.256,3.207,7.209-1.517,9.336c-9.571,4.312-19.034,3.664-28.375-0.718c-3.848-1.803-4.436-5.021-1.11-7.682
			C12.895,24.441,16.072,22.54,19.296,20.866"/>
	</g>
</g>
<g id="Layer_3_1_" display="none">
</g>
<g id="Layer_4_1_">
	<path d="M25.594,32.713c-2.858-0.732-5.924-1.004-8.456-2.312c-2.668-1.376-6.569-3.547-6.81-5.72
		c-0.393-3.532,3.99-4.176,6.984-5.127c20.559-5.295,22.138,9.411,24.263,12.446L25.594,32.713z"/>
</g>
<g id="Layer_7" display="none">
	<path display="inline" d="M41.125,0H10.5v50h30.625V0z M17.631,30.131c-2.519-1.299-6.202-3.349-6.429-5.4
		c-0.371-3.334,3.767-3.942,6.594-4.84c19.408-4.999,20.899,8.884,22.905,11.75l-15.088,0.672
		C22.915,31.62,20.021,31.364,17.631,30.131z"/>
</g>
<g id="Layer_5" display="none">
	<path display="inline" d="M34.346,32.273"/>
	<path display="inline" d="M0,0v50h50V0H0z M37.374,30.697c-7.801,3.514-15.515,2.986-23.13-0.586
		c-3.135-1.471-3.615-4.094-0.905-6.261c2.305-1.847,4.895-3.396,7.523-4.76c1.77-0.919,3.828-1.287,5.754-1.899
		c5.032,0.215,8.565,3.125,11.995,5.895C41.898,25.741,41.227,28.962,37.374,30.697z"/>
</g>
<g id="Layer_6" display="none">
</g>
<g id="Layer_2_1_" display="none">
	<path display="inline" d="M17.796,19.89c-2.828,0.898-6.965,1.506-6.594,4.84c0.228,2.052,3.911,4.102,6.429,5.4
		c2.39,1.233,5.284,1.489,7.982,2.181c-1.424,0.773-2.995,1.625-4.689,2.545c-1.625-3.957-4.569-2.66-7.5-1.431
		c-0.525-3.603-2.889-4.243-8.398-1.503c1.257-2.061,2.025-3.322,2.964-4.861c-2.464-2.913-7.094-4.618-7.254-9.683
		c1.836,1.01,3.527,1.939,5.969,3.281c-0.371-2.104-0.593-3.367-0.876-4.974c1.538,0.823,2.892,1.55,4.785,2.564
		c-0.415-1.572-0.683-2.594-0.953-3.619c0.238-0.034,0.552-0.176,0.702-0.075c2.719,1.829,5.362,1.248,8.276,0.247
		c12.99-4.461,24.669,5.197,22.851,19.056c-2.391-0.529-4.768-1.06-7.145-1.584c-0.009-0.213-0.018-0.424-0.027-0.635
		c1.92,0,3.839,0,6.384,0C38.695,28.775,37.204,14.892,17.796,19.89z"/>
</g>
</svg>
