<?xml version="1.0" encoding="utf-8"?>
<!-- Generator: Adobe Illustrator 16.0.0, SVG Export Plug-In . SVG Version: 6.00 Build 0)  -->
<!DOCTYPE svg PUBLIC "-//W3C//DTD SVG 1.1//EN" "http://www.w3.org/Graphics/SVG/1.1/DTD/svg11.dtd">
<svg version="1.1" xmlns="http://www.w3.org/2000/svg" xmlns:xlink="http://www.w3.org/1999/xlink" x="0px" y="0px" width="50px"
	 height="50px" viewBox="0 0 50 50" enable-background="new 0 0 50 50" xml:space="preserve">
<g id="Layer_2" display="none">
	<path fill="#FFFFFF" d="M49.167,31.959c0,5.735,0,11.472,0,17.208c-16.39,0-32.778,0-49.167,0C0,32.777,0,16.389,0,0
		c16.389,0,32.777,0,49.167,0c0,10.489,0,20.978,0,31.467c-0.552-1.072-0.944-2.272-1.681-3.196
		c-4.678-5.874-9.28-11.871-16.771-14.482c-8.755-3.053-16.926-2.256-22.667,5.534c-2.344,3.18-4.144,6.787-5.961,10.317
		c-0.802,1.557-1.174,3.384-1.467,5.133c-0.167,0.994,0.029,2.463,1.699,1.771c3.281-1.357,6.265-0.109,9.277,0.846
		c6.892,2.186,13.895,3.221,20.974,1.323c4.066-1.09,7.997-2.724,11.933-4.259C46.133,33.816,47.616,32.801,49.167,31.959z"/>
</g>
<g id="Layer_4">
	<path opacity="0.5" stroke="#FFFFFF" stroke-miterlimit="10" d="M2,35.667l5.167-0.833l6.838,1.649L24.167,39l11.167-2.083
		l6.901-2.575l6.932-2.875c0,0-0.333,8.699-4,11.033S34.5,46.5,27,46.167S8,42.501,7.333,41.334S2,35.667,2,35.667z"/>
</g>
<g id="Layer_3">
	<path fill-rule="evenodd" clip-rule="evenodd" d="M49.167,31.959c-1.551,0.842-3.034,1.857-4.665,2.493
		c-3.936,1.535-7.866,3.169-11.933,4.259c-7.079,1.897-14.083,0.862-20.974-1.323c-3.012-0.955-5.996-2.203-9.277-0.846
		c-1.67,0.692-1.866-0.776-1.699-1.771c0.293-1.749,0.665-3.576,1.467-5.133c1.818-3.53,3.617-7.137,5.961-10.317
		c5.742-7.79,13.912-8.586,22.667-5.534c7.491,2.612,12.094,8.609,16.771,14.482c0.736,0.924,1.129,2.124,1.681,3.196
		C49.167,31.631,49.167,31.794,49.167,31.959z M23.644,18.535c-6.172,0.267-10.506,3.834-14.713,7.232
		c-4.032,3.257-3.207,7.209,1.517,9.337c9.572,4.313,19.033,3.664,28.375-0.717c3.848-1.803,4.436-5.021,1.11-7.682
		c-2.828-2.265-6.005-4.166-9.229-5.84C28.532,19.739,26.01,19.289,23.644,18.535z M2.641,33.351
		c0.181,0.253,0.363,0.505,0.544,0.758c0.833-0.432,2.028-0.675,2.383-1.356c0.288-0.554-0.433-1.632-0.706-2.478
		c-0.249,0.049-0.498,0.099-0.747,0.147C3.623,31.398,3.132,32.373,2.641,33.351z"/>
	<path fill-rule="evenodd" clip-rule="evenodd" d="M42.448,13.981c-3.254-2.054-6.454-4.198-9.772-6.143
		c-5.813-3.408-11.663-2.094-17.028,0.834c-3.877,2.116-7.21,5.233-10.775,7.919C4.332,17,3.851,17.489,3.342,17.94
		c-0.183-0.198-0.365-0.395-0.548-0.592c2.17-2.088,4.288-4.236,6.522-6.252c3.673-3.314,7.656-6.024,12.704-6.95
		c4.609-0.845,8.806-0.116,12.555,2.642c2.853,2.099,5.552,4.406,8.319,6.621C42.744,13.599,42.596,13.79,42.448,13.981z"/>
</g>
</svg>
