<?xml version="1.0" encoding="utf-8"?>
<!-- Generator: Adobe Illustrator 16.0.0, SVG Export Plug-In . SVG Version: 6.00 Build 0)  -->
<!DOCTYPE svg PUBLIC "-//W3C//DTD SVG 1.1//EN" "http://www.w3.org/Graphics/SVG/1.1/DTD/svg11.dtd">
<svg version="1.1" id="Layer_1" xmlns="http://www.w3.org/2000/svg" xmlns:xlink="http://www.w3.org/1999/xlink" x="0px" y="0px"
	 width="50px" height="50px" viewBox="0 0 50 50" enable-background="new 0 0 50 50" xml:space="preserve">
<g id="Layer_2" display="none">
	<path display="inline" d="M0,0v50h50V0H0z M39.553,35.104c-9.572,4.313-19.034,3.664-28.375-0.717
		c-3.848-1.803-4.436-5.021-1.11-7.682c2.828-2.265,6.005-4.166,9.229-5.84c2.171-1.127,4.693-1.578,7.059-2.331
		c6.172,0.267,10.506,3.834,14.713,7.231C45.102,29.023,44.275,32.977,39.553,35.104z"/>
</g>
<g id="Layer_4" display="none">
	<path display="inline" d="M19.296,20.866c2.171-1.127,4.693-1.578,7.06-2.331c6.172,0.267,10.506,3.834,14.713,7.232
		c4.033,3.256,3.207,7.209-1.517,9.336c-9.571,4.313-19.034,3.664-28.375-0.717c-3.848-1.803-4.436-5.021-1.11-7.682
		C12.895,24.441,16.072,22.54,19.296,20.866"/>
</g>
<rect x="0.833" width="50" height="50"/>
</svg>
