<svg xmlns="http://www.w3.org/2000/svg" xmlns:xlink="http://www.w3.org/1999/xlink"><symbol viewBox="0 -12.5 50 50" id="brow0"><path d="M13.969 6.922c-.794-.302-1.303-.363-1.622-.643-.632-.557-1.161-1.232-1.732-1.857.784-.396 1.573-1.131 2.352-1.121 1.822.023 3.637.402 5.688.668l-.454-1.965c.21-.161.385-.404.578-.419.786-.064 1.616-.226 2.361-.055 10.666 2.449 20.037 7.124 26.767 16.079.839 1.121.969 2.772 1.428 4.179-1.373-.4-2.867-.578-4.095-1.245a106.69 106.69 0 0 1-8.412-5.079c-5.785-3.867-11.818-3.7-18.143-1.609-4.863 1.606-9.163 4.077-13.136 7.271-1.024.821-2.529 1.045-3.812 1.544-.071-1.363-.492-2.826-.147-4.076 1.129-4.089 3.5-7.336 7.381-9.298 1.527-.774 3.094-1.474 4.998-2.374z"/></symbol><symbol viewBox="-9.98 10.937 50 50" id="ear0"><path d="M24.481 15.635c1.711-3.695 5.292-3.598 7.34-.1.488.836.947 1.752 1.147 2.688 1.849 8.602 3.82 17.184 5.358 25.842.692 3.891.814 7.959.59 11.913-.207 3.631-2.915 4.684-5.846 2.597a15.81 15.81 0 0 1-3.171-3.013c-6.954-8.784-8.298-19.09-8.023-31.576.522-1.745 1.161-5.235 2.605-8.351zm4.977 37.027c1.041 1.526 2.405 2.891 3.825 4.09 2.387 2.018 4.612 1.208 4.706-1.877a52.68 52.68 0 0 0-.709-10.225c-1.254-7.482-2.721-14.934-4.271-22.363-.411-1.964-1.26-3.903-2.238-5.669-1.423-2.567-3.751-2.744-5.065-.156-1.482 2.913-2.227 6.2-2.784 7.837-.139 11.149 1.034 20.301 6.536 28.363z"/><path d="M29.974 43.034c2.628 1.478 3.112-.053 2.762-1.845-.732-3.745-1.725-7.439-2.661-11.143-.259-1.02-.693-1.995-1.048-2.991l-.955.062c-.74 4.188-1.48 8.374-2.223 12.561.121-3.972.262-7.981 1.175-11.807.673-2.825 1.044-5.346-.477-7.914-.048-.082.097-.278.226-.609 4.288 7.12 7.027 14.657 8.041 22.756.196 1.58-.68 3.294-1.061 4.947l-3.979-3.134.2-.883z"/></symbol><symbol viewBox="-9.98 10.937 50 50" id="ear0Skin"><path d="M24.542 15.836c1.694-3.659 5.241-3.562 7.269-.099.483.828.938 1.735 1.136 2.662 1.83 8.517 3.782 17.015 5.306 25.588.687 3.852.807 7.882.583 11.796-.204 3.596-2.885 4.639-5.786 2.572a15.617 15.617 0 0 1-3.141-2.983c-6.886-8.697-8.216-18.901-7.944-31.266.514-1.728 1.147-5.184 2.577-8.27z"/></symbol><symbol viewBox="0 0 50 50" id="eye0"><path opacity=".5" d="M44.262 31.155l-4.213-.679-5.574 1.343-8.283 2.052-9.104-1.696-5.625-2.102-5.651-2.344s.272 7.093 3.261 8.995c2.989 1.903 8.695 3.261 14.81 2.99 6.113-.273 15.488-2.989 16.032-3.939.544-.952 4.347-4.62 4.347-4.62z"/><path d="M5.812 27.729c.45-.873.769-1.852 1.37-2.604 3.814-4.788 7.565-9.677 13.672-11.806 7.135-2.489 13.797-1.838 18.477 4.513 1.913 2.591 3.379 5.531 4.861 8.409.651 1.269.957 2.757 1.194 4.184.137.811-.022 2.008-1.384 1.444-2.674-1.107-5.107-.09-7.562.689-5.617 1.782-11.327 2.626-17.098 1.078-3.314-.889-6.519-2.22-9.727-3.471-1.33-.519-2.539-1.348-3.803-2.034v-.402zm15.05-8.639c-2.629 1.364-5.218 2.914-7.523 4.76-2.71 2.168-2.23 4.792.905 6.262 7.616 3.571 15.33 4.099 23.13.585 3.852-1.735 4.524-4.956 1.237-7.612-3.43-2.771-6.962-5.68-11.995-5.895-1.926.613-3.984.98-5.754 1.9zm21.674 7.789a49.692 49.692 0 0 0-.606-.119c-.224.689-.812 1.567-.576 2.02.289.557 1.265.753 1.941 1.106l.445-.618c-.402-.798-.803-1.591-1.204-2.389z"/><path d="M11.288 13.477c2.653-1.675 5.261-3.422 7.966-5.008 4.738-2.779 9.508-1.707 13.881.68 3.159 1.725 5.878 4.266 8.783 6.456.44.333.831.73 1.247 1.1.147-.162.296-.322.446-.483-1.77-1.703-3.494-3.453-5.315-5.097-2.995-2.702-6.241-4.91-10.355-5.666-3.758-.688-7.179-.095-10.235 2.154-2.326 1.711-4.526 3.591-6.781 5.397.123.156.243.311.363.467z"/></symbol><symbol viewBox="0 0 50 50" id="eye0Skin"><path d="M0 0v50h50V0H0zm37.374 30.697c-7.801 3.514-15.515 2.986-23.13-.585-3.135-1.471-3.615-4.094-.905-6.262 2.305-1.847 4.895-3.396 7.523-4.76 1.77-.919 3.828-1.287 5.754-1.899 5.033.215 8.565 3.125 11.995 5.895 3.287 2.655 2.615 5.876-1.237 7.611z"/></symbol><symbol viewBox="0 0 50 50" id="eye1"><path d="M17.796 19.89c-2.828.898-6.965 1.506-6.594 4.84.228 2.052 3.911 4.102 6.429 5.4 2.39 1.233 5.284 1.489 7.983 2.181l-4.69 2.544c-1.625-3.956-4.569-2.66-7.5-1.43-.525-3.603-2.889-4.243-8.398-1.503L7.99 27.06C5.526 24.148.896 22.443.736 17.378l5.969 3.281-.876-4.974 4.785 2.564c-.415-1.572-.683-2.594-.953-3.619.238-.034.552-.176.702-.075 2.719 1.829 5.362 1.248 8.276.247 12.99-4.461 24.67 5.197 22.851 19.055-2.39-.529-4.767-1.059-7.144-1.584l-.028-.634h6.384c-2.006-2.864-3.498-16.747-22.906-11.749z"/></symbol><symbol viewBox="0 0 50 50" id="eye1Skin"><path d="M0 0v50h50V0H0zm25.614 32.312c-2.699-.691-5.593-.947-7.983-2.181-2.519-1.299-6.202-3.349-6.429-5.4-.371-3.334 3.767-3.942 6.594-4.84 19.408-4.999 20.9 8.885 22.905 11.75l-15.087.671z"/></symbol><symbol viewBox="0 0 50 50" id="eyeBall0"><path d="M31.294 30.091c.2-2.098-.534-2.562-2.189-2.428-2.39.192-4.806.033-7.209.1-.581.016-1.609.263-1.643.513-.095.695.014 1.602.416 2.15 1.48 2.024 5.226 2.595 7.731 1.312.662-.341 1.313-.697 2.081-1.107-1.714 2.819-6.633 3.498-9.904 1.493-3.938-2.416-5.153-7.691-2.668-11.587 2.482-3.892 7.756-4.993 11.644-2.429 3.934 2.597 4.784 7.396 1.741 11.983zm-9.377-9.521c-1.418.049-2.641 1.319-2.642 2.592 0 1.219 1.353 2.479 2.622 2.439 1.384-.043 2.713-1.373 2.559-2.664-.185-1.547-1.242-2.201-2.539-2.367z"/><path fill="#FFF" d="M21.917 20.516c1.297.165 2.354.819 2.539 2.367.154 1.291-1.175 2.621-2.559 2.665-1.269.037-2.622-1.222-2.622-2.44 0-1.275 1.223-2.543 2.642-2.592z"/></symbol><symbol viewBox="0 0 50 50" id="eyeLid"><path d="M.833 0h50v50h-50z"/></symbol><symbol viewBox="0 0 100 100" id="face0"><path d="M89.729 52.525C87.504 76.375 71.863 95.84 49.832 95.84c-22.034 0-39.895-19.393-39.895-43.314 0-49.058 2.79-40.384 39.895-43.314 47.541-3.758 43.055 9.377 39.897 43.313z"/></symbol><symbol viewBox="0 0 100 100" id="faceOver0"><path d="M92.198 41.886l-.936-.28c.159 1.537.377 2.942.417 4.352.015.576.512 1.588-.96 1.574-.127-.001-.235.487-.392.728-.735 1.142-1.246 2.505-2.281 3.364-1.752 1.45-1.873 3.321-2.186 5.122-.175 1.012.358 2.104.384 3.16.032 1.227.463 2.535-1.04 3.518-.525.346-.584 1.256-1.253 1.893-.077-2.299-.13-4.602-.237-6.898-.047-1.031-.219-2.057-.284-3.09-.041-.652-.252-1.447.07-1.939 1.437-2.177.901-4.513.972-6.811.019-.706-.607-1.667.769-2.062.094-.026-.263-.987-.201-1.494.252-2.035-.271-3.879-1.65-5.494-1.827-2.141-2.896-4.478-2.952-7.207-.062-2.97-1.93-4.815-4.659-6.471-4.412-2.675-9.061-2.312-13.962-1.991-6.146.401-12.332.413-18.499.387-3.181-.013-6.355-.566-9.542-.706-4.479-.196-8.053 1.734-10.924 4.506-1.071 1.032-1.481 2.801-1.708 4.292-.372 2.442-1.048 4.592-2.83 6.625-1.789 2.042-2.403 4.551-1.562 7.272.425 1.376.147 2.915.325 4.367.187 1.526.549 3.035.81 4.554.109.645.224 1.301.218 1.949-.02 1.6-.068 3.199-.179 4.799-.127 1.828-.335 3.652-.506 5.465-1.562-1.879-2.906-4.75-2.268-6.898.472-1.592.5-2.891-.195-4.309-.301-.612-.522-1.266-.896-1.84-.954-1.459-1.716-3.123-3.041-4.25-1.359-1.156-1.289-2.321-1.147-3.661.055-.517.197-1.028.283-1.544.069-.409.112-.821.192-1.416l-1.171.55c-.263-5.132-.592-10.179-.758-15.228-.109-3.369 1.464-6.253 3.768-8.849.955-1.078 1.923-2.145 2.963-3.302l-.901-.236c1.556-1.567 3.099-3.134 4.654-4.689 2.116-2.118 4.794-2.747 7.818-2.15.959.188 1.477-.036 2.036-.654 2.552-2.826 5.839-4.205 9.96-4.283 2.238-.042 4.464-.555 6.723-.86l-2.099 1.777c1.805.648 3.501.395 5.16-.039a44.773 44.773 0 0 1 12.779-1.46c1.622.051 3.36.532 4.799 1.223 1.807.871 3.475 1.847 5.689 1.417.021.122.038.244.059.366-.98.271-1.961.544-3.327.925 1.45.646 2.637 1.193 3.841 1.708 2.01.859 4.26 1.43 6.012 2.596 5.167 3.44 9.348 7.683 12.199 12.915 2.034 3.734 2.854 7.554 2.1 11.702-.424 2.294-.322 4.666-.454 7.005z"/></symbol><symbol viewBox="0 -10 100 100" id="mouth0"><path d="M12.634 31.855c1 6.295 1.342 6.643 6.439 3.696 3.706-2.142 7.043-2.166 10.983-.896 11.797 3.802 23.932 3.691 35.706.602 6.024-1.581 11.04-1.803 16.146 1.691.882.603 1.942.941 2.917 1.412 2.754 1.326 4.999 1.33 6.09-2.537 1.34 4.109 4.508 7.67 2.104 12.357-3.025-2.197-5.533-4.399-8.377-6.004-5.834-3.291-11.476-4.586-18.787-2.966-12.489 2.767-25.457 2.729-38.138-.782-2.168-.6-4.794-.175-7.067.369-4.424 1.059-8.75 2.536-13.68 4.01l5.664-10.952zM59.418 55.145L36.895 50.16l.215-1.433h24.195l-1.887 6.418z"/></symbol><symbol viewBox="0 -12.5 50 50" id="nose0"><path d="M29.04 34.645c1.672-1.003 3.272-2.17 5.051-2.922.665-.282 1.74.402 2.628.646-.457.814-.758 2.151-1.401 2.344-1.91.575-3.956.698-5.948.999l-.33-1.067zM20.127 35.645c-1.903-.22-3.873-.218-5.676-.765-.739-.224-1.119-1.631-1.663-2.499.986-.191 2.132-.796 2.927-.489 1.693.651 3.205 1.776 4.792 2.708l-.38 1.045z"/></symbol><symbol viewBox="0 -41 50 50" id="nose1"><path d="M35.572-1.859C38.514 2.208 38.213 6.579 34.06 8c3.592-3.183 2.79-6.492 1.512-9.859zM20.741 7.037c-1.34-.275-2.71-.458-4.001-.882-.35-.115-.46-.955-.682-1.462.578-.176 1.303-.662 1.704-.471 1.168.561 2.206 1.392 3.294 2.117-.105.234-.211.465-.315.698zM29.045 6.304c1.042-.702 2.03-1.513 3.151-2.051.423-.204 1.15.225 1.738.364-.252.56-.382 1.474-.779 1.611-1.217.42-2.535.541-3.813.777l-.297-.701zM15.204 7.743c-2.617-.521-4.113-4.97-.896-9.437-.317 1.744-.967 3.429-.815 5.038.144 1.531 1.126 2.985 1.711 4.399z"/></symbol></svg>