<svg xmlns="http://www.w3.org/2000/svg" xmlns:xlink="http://www.w3.org/1999/xlink"><symbol viewBox="0 0 50 25" id="brow"><path fill-rule="evenodd" clip-rule="evenodd" d="M13.326 7.022c-.809-.308-1.327-.371-1.651-.655-.644-.567-1.182-1.254-1.764-1.892.798-.403 1.602-1.151 2.394-1.14 1.855.023 3.704.409 5.792.679l-.462-2c.214-.164.392-.412.588-.427.8-.066 1.645-.23 2.404-.056 10.86 2.493 20.401 7.253 27.253 16.372.855 1.14.986 2.822 1.454 4.253-1.398-.407-2.919-.588-4.169-1.267a108.626 108.626 0 0 1-8.565-5.171c-5.89-3.938-12.033-3.768-18.473-1.639-4.951 1.636-9.329 4.152-13.375 7.403-1.043.837-2.575 1.065-3.882 1.573-.072-1.389-.501-2.878-.15-4.15 1.15-4.164 3.563-7.47 7.516-9.468 1.556-.786 3.152-1.499 5.09-2.415z"/></symbol><symbol viewBox="0 0 30.039 71.873" id="ear"><path d="M3.064 5.13c2.221-5.911 7.771-6.173 11.34-1.001.853 1.237 1.666 2.6 2.084 4.026 3.85 13.088 7.889 26.133 11.266 39.345 1.519 5.937 2.175 12.215 2.283 18.354.099 5.64-3.967 7.58-8.738 4.691a24.425 24.425 0 0 1-5.252-4.294C4.281 53.469 1.015 37.687 0 18.345c.605-2.758 1.19-8.229 3.064-13.215zm11.964 56.685c1.787 2.242 4.053 4.195 6.387 5.886 3.924 2.844 7.272 1.335 7.062-3.445-.233-5.272-1.021-10.599-2.276-15.729-2.8-11.428-5.927-22.782-9.182-34.093-.861-2.99-2.396-5.89-4.113-8.508-2.496-3.806-6.117-3.811-7.853.342-1.956 4.675-2.728 9.845-3.401 12.44 1.071 17.257 3.939 31.275 13.376 43.107z"/><path d="M14.718 46.867c4.232 1.983 4.805-.438 4.056-3.169-1.563-5.707-3.525-11.307-5.399-16.926-.518-1.547-1.303-3.004-1.965-4.503l-1.469.205-1.99 19.679c-.272-6.156-.516-12.373.455-18.394.715-4.447.998-8.388-1.648-12.184-.084-.121.117-.441.277-.968 7.453 10.516 12.558 21.857 15.058 34.264.487 2.42-.671 5.173-1.069 7.772l-6.516-4.386c.069-.463.139-.927.21-1.39z"/></symbol><symbol viewBox="0 0 30.039 71.873" id="earSkin"><path d="M3.064 5.13c2.221-5.911 7.771-6.173 11.34-1.001.853 1.237 1.666 2.6 2.084 4.026 3.85 13.088 7.889 26.133 11.266 39.345 1.519 5.937 2.175 12.215 2.283 18.354.099 5.64-3.967 7.58-8.738 4.691a24.425 24.425 0 0 1-5.252-4.294C4.281 53.469 1.015 37.687 0 18.345c.605-2.758 1.19-8.229 3.064-13.215z"/></symbol><symbol viewBox="0 0 50 50" id="eye01"><path opacity=".5" d="M48 35.667l-5.168-.833-6.838 1.649L25.833 39l-11.167-2.083-6.901-2.575-6.932-2.875s.333 8.699 4 11.033S15.5 46.5 23 46.167c7.5-.333 19-3.666 19.667-4.833S48 35.667 48 35.667z"/><path fill-rule="evenodd" clip-rule="evenodd" d="M.833 31.467c.552-1.072.944-2.272 1.681-3.196 4.678-5.874 9.28-11.871 16.771-14.482 8.754-3.053 16.926-2.256 22.667 5.534 2.346 3.18 4.145 6.787 5.963 10.317.801 1.557 1.174 3.384 1.467 5.133.166.994-.029 2.463-1.699 1.771-3.281-1.357-6.266-.109-9.277.846-6.893 2.186-13.895 3.221-20.974 1.323-4.066-1.09-7.997-2.724-11.933-4.259-1.631-.636-3.114-1.651-4.665-2.493l-.001-.494zm18.463-10.601c-3.225 1.674-6.401 3.575-9.229 5.84-3.325 2.66-2.737 5.879 1.11 7.682 9.342 4.381 18.803 5.03 28.375.717 4.723-2.128 5.549-6.08 1.516-9.337-4.207-3.398-8.541-6.966-14.713-7.232-2.365.753-4.888 1.203-7.059 2.33zm26.589 9.556l-.746-.147c-.273.846-.994 1.924-.707 2.478.355.682 1.551.925 2.383 1.356l.545-.758-1.475-2.929z"/><path fill-rule="evenodd" clip-rule="evenodd" d="M7.551 13.981c3.254-2.054 6.454-4.198 9.772-6.143 5.813-3.408 11.663-2.094 17.028.834 3.877 2.116 7.211 5.233 10.775 7.919.541.408 1.021.897 1.531 1.349.182-.198.363-.395.547-.592-2.17-2.088-4.287-4.236-6.521-6.252-3.674-3.314-7.656-6.024-12.705-6.95-4.608-.845-8.805-.116-12.554 2.642-2.853 2.099-5.552 4.406-8.319 6.621.15.19.299.381.446.572z"/></symbol><symbol viewBox="0 0 50 50" id="eye01Skin"><path d="M0 0v50h50V0H0zm39.553 35.104c-9.572 4.313-19.034 3.664-28.375-.717-3.848-1.803-4.436-5.021-1.11-7.682 2.828-2.265 6.005-4.166 9.229-5.84 2.171-1.127 4.693-1.578 7.059-2.331 6.172.267 10.506 3.834 14.713 7.232 4.033 3.258 3.206 7.211-1.516 9.338z"/></symbol><symbol viewBox="0 0 50 50" id="eye02"><path fill-rule="evenodd" clip-rule="evenodd" d="M20.897 21.848c-3.403 1.081-8.381 1.812-7.935 5.824.274 2.469 4.706 4.936 7.736 6.498 2.876 1.484 6.359 1.793 9.606 2.625l-5.643 3.061c-1.955-4.76-5.498-3.201-9.024-1.721-.631-4.334-3.476-5.105-10.106-1.809l3.566-5.852C6.133 26.97.561 24.919.368 18.825l7.183 3.948-1.055-5.985 5.758 3.086c-.499-1.892-.822-3.121-1.146-4.355.286-.041.664-.212.844-.09 3.272 2.201 6.453 1.501 9.959.297 15.631-5.368 29.684 6.254 27.496 22.928-2.876-.637-5.736-1.273-8.596-1.906l-.033-.762h7.68c-2.412-3.447-4.208-20.153-27.561-14.138z"/></symbol><symbol viewBox="0 0 50 50" id="eye02Skin"><path fill-rule="evenodd" clip-rule="evenodd" d="M0 0v50h50V0H0zm40.778 35.986l-10.474.809c-3.247-.832-6.73-1.141-9.606-2.625-3.031-1.562-7.462-4.029-7.736-6.498-.446-4.012 4.532-4.743 7.935-5.824 23.353-6.015 25.149 10.691 27.561 14.138h-7.68z"/></symbol><symbol viewBox="0 0 50 50" id="eyeBall"><path fill-rule="evenodd" clip-rule="evenodd" d="M32.846 31.32c.248-2.604-.665-3.181-2.719-3.014-2.967.24-5.968.041-8.951.124-.721.019-1.998.327-2.04.637-.118.863.017 1.988.516 2.67 1.837 2.513 6.489 3.222 9.599 1.629.822-.422 1.632-.866 2.585-1.375-2.129 3.501-8.236 4.344-12.298 1.854-4.889-3-6.398-9.549-3.313-14.386 3.082-4.833 9.63-6.199 14.457-3.016 4.887 3.224 5.942 9.183 2.164 14.877zM21.202 19.5c-1.761.061-3.279 1.637-3.28 3.218-.001 1.514 1.679 3.078 3.255 3.029 1.718-.053 3.369-1.705 3.177-3.308-.229-1.922-1.541-2.733-3.152-2.939z"/><path fill-rule="evenodd" clip-rule="evenodd" fill="#FFF" d="M21.202 19.432c1.611.205 2.922 1.017 3.152 2.939.191 1.603-1.459 3.255-3.177 3.308-1.576.048-3.256-1.516-3.255-3.029.001-1.582 1.519-3.157 3.28-3.218z"/></symbol><symbol viewBox="0 0 50 50" id="eyeLid"><path d="M.833 0h50v50h-50z"/></symbol><symbol viewBox="0 0 74.667 94" id="face"><path fill-rule="evenodd" clip-rule="evenodd" d="M64.958 53.214c-1.493 19.065-12.01 34.627-26.821 34.627-14.813 0-26.821-15.503-26.821-34.627 0-39.218 1.876-32.285 26.821-34.628 31.961-3.003 28.946 7.497 26.821 34.628z"/></symbol><symbol viewBox="0 0 74.667 94" id="faceOver"><g fill-rule="evenodd" clip-rule="evenodd"><path d="M69.549 38.519l-.712-.239c.121 1.311.288 2.51.317 3.712.012.492.389 1.355-.728 1.343-.096-.001-.179.415-.297.62-.559.974-.946 2.138-1.733 2.87-1.33 1.237-1.421 2.833-1.658 4.371-.133.862.271 1.793.292 2.695.024 1.046.35 2.164-.79 3.001-.399.294-.443 1.072-.952 1.614-.057-1.962-.099-3.925-.179-5.885-.035-.88-.167-1.756-.216-2.636-.031-.557-.193-1.235.053-1.655 1.091-1.857.685-3.85.737-5.81.016-.602-.46-1.423.584-1.759.072-.023-.2-.843-.153-1.275.192-1.736-.206-3.309-1.252-4.687-1.387-1.827-2.199-3.82-2.242-6.148-.046-2.534-1.464-4.108-3.535-5.52-3.35-2.282-6.878-1.972-10.598-1.699-4.665.343-9.36.352-14.041.33-2.415-.011-4.824-.483-7.243-.602-3.4-.167-6.112 1.48-8.292 3.844-.813.881-1.124 2.39-1.296 3.662-.282 2.083-.795 3.917-2.147 5.652-1.358 1.742-1.825 3.882-1.186 6.204.323 1.174.112 2.486.247 3.725.142 1.302.417 2.589.614 3.886.083.549.17 1.108.165 1.661a79.882 79.882 0 0 1-.135 4.094c-.097 1.561-.254 3.117-.384 4.663-1.186-1.604-2.205-4.052-1.721-5.886.358-1.356.379-2.465-.148-3.675-.228-.523-.396-1.08-.681-1.57-.724-1.243-1.302-2.663-2.308-3.625-1.031-.986-.978-1.98-.871-3.123.041-.441.149-.877.215-1.317.052-.349.085-.7.145-1.208l-.889.469c-.2-4.378-.45-8.683-.575-12.991-.083-2.874 1.111-5.334 2.86-7.549.725-.919 1.46-1.829 2.25-2.816l-.684-.202c1.181-1.337 2.352-2.673 3.532-4 1.606-1.807 3.639-2.343 5.934-1.834.728.161 1.121-.03 1.546-.558 1.937-2.41 4.432-3.587 7.56-3.653 1.699-.036 3.389-.474 5.103-.734l-1.593 1.516c1.37.553 2.657.337 3.916-.033 3.17-.932 6.417-1.363 9.699-1.246 1.232.044 2.551.454 3.642 1.044 1.373.743 2.639 1.576 4.32 1.208l.044.312-2.524.789c1.101.551 2.001 1.018 2.914 1.457 1.527.733 3.234 1.22 4.563 2.215 3.923 2.935 7.096 6.554 9.26 11.017 1.545 3.186 2.167 6.444 1.594 9.983-.322 1.959-.243 3.983-.343 5.978zM58.968 73.383c-.275.461-.54.929-.827 1.382-2.826 4.463-6.584 7.943-11.194 10.495-1.613.894-3.214 2.065-4.96 2.415-4.903.981-9.52.307-13.837-2.66-4.152-2.854-7.899-5.996-10.595-10.288a1.623 1.623 0 0 1-.258-.731c1.476 1.681 2.921 3.389 4.434 5.036 3.176 3.458 7.262 5.605 11.361 7.703.72.368 1.638.431 2.474.477 1.411.078 2.85.182 4.238-.007 1.409-.191 2.861-.534 4.139-1.141 6.001-2.844 10.904-7.015 14.642-12.527.062-.092.166-.155.25-.232l.133.078z"/></g></symbol><symbol viewBox="0 0 100 25" id="mouth"><path fill-rule="evenodd" clip-rule="evenodd" d="M11.634.856c1 6.294 1.342 6.642 6.439 3.696 3.706-2.142 7.043-2.166 10.983-.896 11.797 3.802 23.932 3.691 35.705.602 6.025-1.581 11.041-1.803 16.146 1.691.882.603 1.943.942 2.917 1.412 2.754 1.326 4.999 1.331 6.09-2.537 1.34 4.109 4.508 7.67 2.103 12.357-3.025-2.197-5.532-4.399-8.377-6.003-5.834-3.291-11.475-4.586-18.786-2.966-12.49 2.766-25.457 2.73-38.138-.782-2.168-.6-4.794-.175-7.067.369-4.424 1.058-8.75 2.536-13.68 4.009L11.634.856zM58.418 24.144l-22.523-4.985.215-1.433h24.194l-1.886 6.418z"/></symbol><symbol viewBox="0 0 50 25" id="nose01"><g fill-rule="evenodd" clip-rule="evenodd"><path d="M44.982 4.903c5.562 7.688 4.992 15.949-2.857 18.633 6.789-6.017 5.273-12.27 2.857-18.633zM16.948 21.716c-2.533-.519-5.122-.866-7.562-1.667-.661-.217-.871-1.804-1.288-2.762 1.091-.334 2.463-1.254 3.219-.891 2.208 1.06 4.169 2.632 6.227 4.003-.198.44-.397.878-.596 1.317zM32.646 20.332c1.969-1.327 3.838-2.86 5.955-3.877.801-.384 2.174.425 3.285.688-.475 1.058-.721 2.787-1.471 3.046-2.299.793-4.793 1.021-7.209 1.468a309.09 309.09 0 0 0-.56-1.325zM6.484 23.053c-4.947-.987-7.775-9.396-1.692-17.838-.599 3.296-1.828 6.48-1.541 9.522.272 2.894 2.128 5.64 3.233 8.316z"/></g></symbol><symbol viewBox="0 0 50 25" id="nose02"><path fill-rule="evenodd" clip-rule="evenodd" d="M31.572 20.212c2.658-1.595 5.206-3.451 8.033-4.648 1.059-.448 2.768.641 4.18 1.028-.727 1.295-1.205 3.421-2.229 3.729-3.039.913-6.292 1.109-9.461 1.587l-.523-1.696zM17.395 21.803c-3.027-.349-6.16-.347-9.028-1.216-1.175-.356-1.78-2.594-2.645-3.976 1.569-.305 3.391-1.266 4.655-.778 2.694 1.037 5.098 2.826 7.622 4.308l-.604 1.662z"/></symbol></svg>