<svg xmlns="http://www.w3.org/2000/svg" xmlns:xlink="http://www.w3.org/1999/xlink"><symbol viewBox="0 0 50 50" id="brow0"><path fill-rule="evenodd" clip-rule="evenodd" d="M22.495 16.393c2.701.194 5.454.317 8.062.966 4.572 1.138 8.875 3.05 12.89 5.557.848.529 1.729 1.006 2.57 1.547.964.618 1.141 1.337.694 2.497-.087.226-.106.479-.203.7-.487 1.105-.835 2.318-1.534 3.271-.571.78-1.192 1.484-1.564 2.408-.356.885-1.354 1.067-2.162.553-1.512-.96-3.004-1.96-4.571-2.82-3.338-1.835-6.861-3.249-10.61-3.95-2.951-.552-5.937-.931-8.92-1.285-4.044-.484-8.026.114-11.98.908-.998.2-1.842-.4-1.599-1.405.228-.948-.081-1.584-.607-2.254-.417-.529-.46-1.086-.285-1.772.269-1.055.874-1.649 1.858-2.046 3.768-1.52 7.705-2.298 11.716-2.922 2.083.007 4.173-.103 6.245.047z"/></symbol><symbol viewBox="0 0 50 50" id="brow1"><path fill-rule="evenodd" clip-rule="evenodd" d="M26.819 17.275c5.129.536 10.129 1.706 15.008 3.414 2.7.945 5.163 2.207 7.161 4.297.765.801.84.912.115 1.812-1.097 1.357-2.26 2.661-3.374 4.005-.491.595-.977 1.202-1.387 1.854-1.024 1.626-2.624 1.709-3.94.241-.608-.682-1.297-1.343-2.07-1.819-6.024-3.715-12.527-6.209-19.561-7.114-4.326-.554-8.692-.812-13.039-1.224-.783-.076-1.496-.127-2.23.333-.784.487-1.501.192-1.902-.646a21.895 21.895 0 0 1-.782-1.88c-.428-1.16.155-2.212 1.351-2.374 2.971-.4 5.948-.764 8.923-1.143 5.256-.523 10.5-.303 15.727.244z"/></symbol><symbol viewBox="0 0 50 50" id="brow2"><path fill-rule="evenodd" clip-rule="evenodd" d="M2.675 22.516c.397-.182.813-.322 1.22-.485 1.935-.776 3.9-1.488 5.795-2.351 1.53-.695 3.146-1.337 4.125-2.847.639-.987 1.508-1.17 2.639-1.092 2.177.151 4.309.408 6.405 1.07 2.4.757 4.883 1.255 7.273 2.034 3.137 1.022 6.188 2.26 9.049 3.95 1.777 1.051 3.491 2.232 5.563 2.747 1.075.267 1.968.575 2.987-.235.727-.578 1.553-.036 1.611.914.023.386-.126.812-.012 1.157.674 2.032.026 3.818-.935 5.56-.69 1.252-1.407 1.538-2.76 1.122-.697-.215-1.387-.489-2.103-.61-3.347-.564-6.4-1.927-9.389-3.44-2.957-1.497-6.019-2.714-9.168-3.726a445.345 445.345 0 0 1-6.903-2.273c-.77-.26-1.492-.293-2.262.004a14.77 14.77 0 0 1-2.081.618 91.273 91.273 0 0 1-4.131.84c-1.718.303-3.443.576-5.173.802-.331.043-.883-.085-1.025-.319-.436-.724-1.06-.723-1.708-.604-.655-1.588-.438-2.188.983-2.836z"/></symbol><symbol viewBox="0 0 50 50" id="chin0"><path fill-rule="evenodd" clip-rule="evenodd" d="M1.18 22.572c.143-1.842.266-3.468.396-5.093.025-.313.037-.638.127-.934.236-.781.006-1.903 1.298-1.967.769-.039 1.622 1.124 1.596 2.245-.051 2.18-.155 4.359-.241 6.539-.038.945-.125 1.889-.118 2.836.019 2.398 1.457 4.01 3.842 4.305 4.122.512 8.236 1.135 12.374 1.455 2.876.223 5.791.107 8.681-.025 2.822-.131 5.635-.479 8.453-.723a15.123 15.123 0 0 0 4.723-1.176c.664-.285 1.424-.363 2.15-.475 1.287-.199 1.387-.264 1.406-1.482.029-1.826.08-3.652.033-5.477-.02-.737-.34-1.461-.391-2.201-.043-.652-.102-1.428.193-1.957.678-1.214 1.842-1.138 2.361.171.357.899.473 1.934.504 2.914.064 2.137-.055 4.281.02 6.418.041 1.178.416 2.346.459 3.523.049 1.354-.322 1.791-1.635 1.723-1.982-.104-3.791.691-5.721.861-5.318.473-10.619 1.143-15.943 1.555-4.03.312-8.022-.322-12.011-.906-2.663-.391-5.36-.561-8.046-.76-1.201-.09-1.903-.719-2.554-1.654-2.112-3.041-2.522-6.381-1.956-9.715z"/></symbol><symbol viewBox="0 0 50 50" id="chin1"><path fill-rule="evenodd" clip-rule="evenodd" d="M43.092 12.149c.395.346.923.639 1.202 1.086 1.804 2.891 3.729 5.819 3.959 9.294.268 4.045-.118 8.063-2.786 11.456-.996 1.267-2.288 2.107-3.742 2.795-5.344 2.524-10.303 1.156-15.105-1.475-.961-.526-1.697-1.463-2.691-2.35-.279.313-.669.678-.973 1.104-1.38 1.94-3.281 2.828-5.626 2.984-7.317.488-13.127-5.03-13.934-11.946-.401-3.436.416-6.571 1.693-9.658.285-.689.907-1.581 1.624-1.204.712.374 1.169 1.338 1.578 2.127.15.291-.088.849-.265 1.231-1.549 3.372-1.444 6.851-.736 10.38.314 1.565 1.196 2.74 2.436 3.684 1.882 1.434 4.096 2.004 6.373 1.979 3.24-.034 4.831-1.871 5.848-4.698.42-1.17.991-1.912 1.882-1.956.821-.041 2.007 1.018 2.229 2.011.055.245.014.511.072.752.331 1.337.922 2.614 2.259 3.081 2.184.763 4.415 1.584 6.688 1.853 3.557.419 7.881-2.31 9.111-5.688 1.395-3.833 1.711-7.747-.518-11.473a14.345 14.345 0 0 0-1.178-1.701c-1.4-1.717-1.345-2.196.6-3.668z"/></symbol><symbol viewBox="0 0 50 50" id="ear0"><g fill-rule="evenodd" clip-rule="evenodd"><path d="M47.481 43.789c.524.94.547 1.289-.03 1.917-.382.415-.838.805-1.336 1.063-1.751.912-3.603 1.543-5.579 1.738a2.436 2.436 0 0 1-.958-.111c-2.114-.698-3.803-1.956-4.664-4.046-.537-1.306-.341-2.733-.203-4.122.131-1.331.416-2.628.301-4.009-.151-1.829-.857-3.393-1.774-4.891-.98-1.603-2.124-3.107-3.085-4.721-2.047-3.436-3.498-7.059-3.612-11.157-.102-3.651 1.357-6.595 3.576-9.345 2.022-2.508 4.759-3.837 7.681-4.765 1.969-.625 4.05-.34 6 .432a7.172 7.172 0 0 1 2.932 2.16c.329.402.599.877.788 1.361.197.502-.132.852-.684.826-.529-.025-.938-.251-1.166-.744-.86-1.867-2.435-2.513-4.364-2.601-3.084-.14-5.66 1.142-7.958 2.989-2.016 1.619-3.417 3.75-4.229 6.215-.639 1.939-.673 3.949-.346 5.949.563 3.45 2.051 6.52 3.965 9.407 1.014 1.53 2.085 3.028 3.009 4.611 1.351 2.312 1.865 4.823 1.463 7.504a37.58 37.58 0 0 0-.379 3.41c-.104 1.8 2.105 3.903 3.916 3.584 1.918-.338 3.83-.816 5.466-2.006.38-.276.848-.436 1.27-.648z"/><path d="M43.905 23.727c.1-.443.23-.863.287-1.293.238-1.816.604-3.617.378-5.476-.181-1.483-.944-2.606-2-3.548-.853-.76-2.752-.682-3.789.137-1.199.947-2.212 2.083-2.828 3.5-.186.428-.214.946-.226 1.425-.013.537-.235.868-.741.97-.521.105-1.275-.363-1.312-.857-.041-.519-.078-1.094.098-1.563.774-2.063 2.012-3.804 3.771-5.171 1.599-1.242 3.372-1.1 4.995-.373 2.999 1.345 4.274 3.541 4.194 7.222-.03 1.385-.328 2.762-.446 4.146-.063.76-.052 1.534.008 2.294.081 1.031-.489 1.553-1.498 1.285a1.518 1.518 0 0 1-.337-.145c-1.282-.701-1.643-.371-2.245.754-.863 1.612-.859 3.311.053 4.932.466.829 1.07 1.061 1.962.738.525-.189.991-.547 1.479-.838.209-.124.392-.349.611-.387.3-.051.739-.084.906.086.217.218.305.646.296.979-.007.247-.207.543-.405.724-1.364 1.235-2.949 1.74-4.732 1.143-1.294-.434-2.069-1.51-2.489-2.722-.83-2.391-.479-4.685.978-6.77.553-.791 1.373-1.136 2.33-1.161.199-.005.4-.017.702-.031z"/></g></symbol><symbol viewBox="0 0 50 50" id="ear0Skin"><path fill-rule="evenodd" clip-rule="evenodd" d="M47.88 43.417c.524.94.148 1.661-.429 2.289-.382.415-.838.805-1.336 1.063-1.751.912-3.603 1.543-5.579 1.738a2.436 2.436 0 0 1-.958-.111c-2.114-.698-3.803-1.956-4.664-4.046-.537-1.306-.341-2.733-.203-4.122.131-1.331.416-2.628.301-4.009-.151-1.829-.857-3.393-1.774-4.891-.98-1.603-2.124-3.107-3.085-4.721-2.047-3.436-3.498-7.059-3.612-11.157-.102-3.651 1.357-6.595 3.576-9.345 2.022-2.508 4.759-3.837 7.681-4.765 1.969-.625 4.05-.34 6 .432a7.172 7.172 0 0 1 2.932 2.16c.329.402.599.877.788 1.361"/></symbol><symbol viewBox="0 0 50 50" id="ear1"><g fill-rule="evenodd" clip-rule="evenodd"><path d="M48.229 10.946c-.978.27-1.703-.073-2.142-.853-.705-1.258-1.977-1.726-3.16-1.823-1.849-.151-3.786-.199-5.536.71-.572.297-1.16.615-1.634 1.041-1.212 1.093-2.416 2.202-3.527 3.396-2.356 2.531-3.635 5.511-3.934 9.006-.338 3.926.299 7.654 1.615 11.309.886 2.459 2.188 4.64 4.226 6.347a3.698 3.698 0 0 0 2.216.895c.53.036 1.072.136 1.591.069 1.945-.249 3.927-.46 5.608-1.579C44.6 38.768 45.58 37.94 46 36.661c.15-.458.207-1.017.88-.994.572.019 1.337.629 1.461 1.15.13.543.016 1.012-.324 1.489-1.528 2.151-3.464 3.589-6.098 4.237-1.608.396-3.173.719-4.821.644-2.484-.112-4.277-1.479-5.854-3.226-2.422-2.683-3.63-5.947-4.491-9.384-.713-2.84-1.045-5.711-.825-8.631.063-.849.216-1.7.416-2.529.946-3.9 2.958-7.124 6.176-9.564.226-.172.483-.336.639-.564 1.593-2.35 3.98-2.908 6.598-2.968.326-.007.671.045.979-.036 1.918-.51 3.55.25 5.091 1.205.853.528 1.586 1.258 2.335 1.94.453.415.442.939.067 1.516z"/><path d="M42.921 27.144c-2.128 1.163-2.734 3.747-1.366 5.687.23.328.616.626.21 1.056-.375.396-.812.332-1.228.061-1.148-.743-1.774-1.818-1.778-3.17-.004-.852.137-1.713.302-2.553.269-1.347 1.197-2.188 2.344-2.834.923-.521 1.783-.458 2.607.218.368.302.764.569 1.265.941.355-1.549.381-2.945.061-4.341-.119-.515-.36-1-.485-1.514-.467-1.925-1.671-3.212-3.395-4.106-.969-.502-1.464-.487-2.353.152-1.117.804-2.022 1.764-2.604 3.032-.324.705-.936.897-1.624.613-.704-.291-.948-.799-.567-1.607.929-1.979 2.359-3.539 4.354-4.463.734-.34 1.646-.375 2.382.072a56.826 56.826 0 0 1 3.869 2.584c.963.7 1.316 1.823 1.802 2.865 1.007 2.158 1.233 4.375.824 6.701-.17.963-.235 1.944-.301 2.92-.064.98-.208 1.269-.833 1.398-.592.125-1.421-.305-1.721-.933-.159-.328-.229-.698-.371-1.037-.288-.681-.625-1.332-1.394-1.742z"/></g></symbol><symbol viewBox="0 0 50 50" id="ear1Skin"><path fill-rule="evenodd" clip-rule="evenodd" d="M48.341 36.817c.13.543.016 1.012-.324 1.489-1.528 2.151-3.464 3.589-6.098 4.237-1.608.396-3.173.719-4.821.644-2.484-.112-4.277-1.479-5.854-3.226-2.422-2.683-3.63-5.947-4.491-9.384-.713-2.84-1.045-5.711-.825-8.631.063-.849.216-1.7.416-2.529.946-3.9 2.958-7.124 6.176-9.564.226-.172.483-.336.639-.564 1.593-2.35 3.98-2.908 6.598-2.968.326-.007.671.045.979-.036 1.918-.51 3.55.25 5.091 1.205.853.528 1.586 1.258 2.335 1.94.455.414 1.214.938.84 1.516"/></symbol><symbol viewBox="0 0 50 50" id="ear2"><g fill-rule="evenodd" clip-rule="evenodd"><path d="M46.992 8.933c-.282-.605-.549-1.241-.868-1.849-1.194-2.266-3.081-2.894-5.46-1.859-1.152.501-2.103 1.195-2.779 2.299-.902 1.471-1.691 2.96-2.065 4.672-.278 1.272-.78 2.495-1.103 3.76-.865 3.406-.971 6.868-.655 10.355.073.814.039 1.643.158 2.449.307 2.06.622 4.12 1.028 6.163.275 1.384.693 2.74 1.08 4.1.356 1.251 1.09 2.272 2.113 3.062a33.347 33.347 0 0 0 2.316 1.612c1.062.682 1.94.616 2.874-.286.549-.532 1.025-1.154 1.452-1.792.402-.603.697-1.279 1.069-1.979l.864-.099c.066.11.143.179.143.248-.002 2.118-.751 3.901-2.367 5.309-1.196 1.042-2.553 1.216-3.995.714-1.561-.543-2.917-1.473-4.173-2.523-1.33-1.113-2.062-2.637-2.478-4.275-.45-1.772-.762-3.58-1.12-5.375-.687-3.431-.981-6.913-1.032-10.395-.036-2.515.061-5.062.854-7.51.604-1.864 1.158-3.744 1.732-5.617.55-1.788 1.571-3.383 2.768-4.705 1.015-1.12 2.461-2.022 4.131-2.211.325-.037.65-.076.977-.115 2.184-.268 3.532.416 4.619 2.39.353.641.646 1.319.931 1.994.443 1.046.313 1.232-1.014 1.463z"/><path d="M45.191 24.221c-.131-1.924-.238-3.714-.383-5.5-.069-.856-.158-1.716-.326-2.556-.259-1.289-1.235-2.117-2.515-2.301-.8-.115-1.331.207-1.71.876-.24.425-.443.886-.752 1.258-.28.338-.671.623-1.176.418-.484-.197-.723-.729-.562-1.32.411-1.518 1.342-2.711 2.808-3.17 1.432-.448 2.79.108 4 1.026 1.843 1.396 2.118 3.395 2.239 5.47.161 2.737.301 5.475.466 8.211.06.985-.356 1.554-1.265 1.543-.639-.008-.966-.477-1.258-.995-.212-.379-.474-.769-.809-1.032-.794-.625-1.281-.547-1.605.357-.493 1.379-.847 2.809-1.254 4.22-.032.113.005.247-.018.366-.113.595-.64 1.051-1.188 1.028-.691-.029-.823-.64-.773-1.06.144-1.204.371-2.408.693-3.578.214-.778.637-1.5.983-2.241.705-1.504 1.148-1.75 2.773-1.484.479.08.937.263 1.632.464z"/></g></symbol><symbol viewBox="0 0 50 50" id="ear2Skin"><path fill-rule="evenodd" clip-rule="evenodd" d="M47.16 39.788c-.002 2.118-.751 3.901-2.367 5.309-1.196 1.042-2.553 1.216-3.995.714-1.561-.543-2.917-1.473-4.173-2.523-1.33-1.113-2.062-2.637-2.478-4.275-.45-1.772-.762-3.58-1.12-5.375-.687-3.431-.981-6.913-1.032-10.395-.036-2.515.061-5.062.854-7.51.604-1.864 1.158-3.744 1.732-5.617.55-1.788 1.571-3.383 2.768-4.705 1.015-1.12 2.461-2.022 4.131-2.211.325-.037.65-.076.977-.115 2.184-.268 3.532.416 4.619 2.39.353.641.646 1.319.931 1.994"/></symbol><symbol viewBox="0 0 50 50" id="eye0"><g fill-rule="evenodd" clip-rule="evenodd"><path d="M22.524 39.828c-2.277-.371-4.795-.957-7.344-1.151-3.431-.263-6.509-1.736-9.791-2.485-.389-.088-.886-.321-1.06-.637-.842-1.538-1.805-3.04-1.886-4.887-.031-.709-.244-1.41-.278-2.121-.142-2.931.83-5.59 1.923-8.258 1.241-3.031 3.099-5.56 5.548-7.681 1.331-1.153 2.763-2.147 4.435-2.794 1.28-.495 2.512-1.125 3.734-1.753 2.809-1.442 5.823-1.679 8.892-1.548 3.418.146 6.548 1.204 9.364 3.162 1.876 1.306 3.746 2.621 5.628 3.918 2.89 1.994 4.657 4.859 6.03 7.973.785 1.782.347 3.637-.146 5.465-.563 2.09-1.767 3.824-3.086 5.428-.945 1.149-2.21 2.104-3.487 2.898-4.425 2.75-9.296 4.089-14.495 4.27-1.234.042-2.466.123-3.981.201zm1.296-2.547a48.253 48.253 0 0 0 9.318-1.564c3.985-1.079 7.168-3.228 9.666-6.443a10.617 10.617 0 0 0 1.939-4.067c.82-3.464-.868-6.175-3.063-8.488-2.164-2.279-4.796-4.057-7.511-5.676C31.18 9.259 27.9 8.719 24.527 9.03c-3.566.328-6.862 1.723-9.904 3.536-4.733 2.821-7.943 6.882-9.328 12.31-.619 2.425-.495 4.815.062 7.208.09.381.41.726.675 1.044 1.323 1.589 3.234 1.925 5.1 2.276 2.195.417 4.409.735 6.621 1.062 2.02.294 4.045.545 6.067.815zM3.567 42.046c.697-1.052 1.318-2.062 2.018-3.014.357-.487 1.393-.4 1.917.193 2.368 2.68 5.542 3.763 8.874 4.508 1.627.365 3.288.582 4.929.886.31.058.604.205.88.302.024.859-.553.958-1.066.948-1.045-.021-2.101-.069-3.132-.233-2.979-.475-5.868-1.278-8.567-2.66a15.01 15.01 0 0 1-1.823-1.128c-.613-.437-1.062-.384-1.613.163-.8.794-1.182.766-2.417.035z"/></g></symbol><symbol viewBox="0 0 50 50" id="eye0Skin"><path fill-rule="evenodd" clip-rule="evenodd" d="M23.82 37.281a48.253 48.253 0 0 0 9.318-1.564c3.985-1.079 7.168-3.228 9.666-6.443a10.617 10.617 0 0 0 1.939-4.067c.82-3.464-.868-6.175-3.063-8.488-2.164-2.279-4.796-4.057-7.511-5.676C31.18 9.259 27.9 8.719 24.527 9.03c-3.566.328-6.862 1.723-9.904 3.536-4.733 2.821-7.943 6.882-9.328 12.31-.619 2.425-.495 4.815.062 7.208.09.381.41.726.675 1.044 1.323 1.589 3.234 1.925 5.1 2.276 2.195.417 4.409.735 6.621 1.062 2.02.294 4.045.545 6.067.815z"/></symbol><symbol viewBox="0 0 50 50" id="eye0a"><g fill-rule="evenodd" clip-rule="evenodd"><path d="M5.013 34.495c2.273 1.005 4.374 2.206 6.631 2.867 3.614 1.059 7.349 1.653 11.15 1.343.649-.053 1.273-.477 1.917-.502 1.084-.04 2.202-.024 3.26.19 2.63.531 5.024-.127 7.255-1.385 2.535-1.43 4.965-3.035 7.112-5.035.365-.341.869-.534 1.287-.783 1.088 1.238 1.171 1.602.273 2.475-3.533 3.44-7.399 6.35-12.382 7.349a9.541 9.541 0 0 1-2.13.195c-1.519-.044-3.034-.183-4.551-.258-.524-.024-1.052.012-1.578.048-5.395.371-10.531-.636-15.442-2.872-.822-.374-1.696-.639-2.505-1.037-.806-.398-1.602-.845-2.324-1.374-.813-.598-.764-1.535-.535-2.369.201-.729.162-1.215-.425-1.776-.416-.396-.643-1.049-.82-1.628-.229-.751-.196-1.481.511-2.066.813-.674 1.069-1.634 1.225-2.648.531-3.453 1.789-6.623 3.96-9.371a20.387 20.387 0 0 1 4.353-4.092c2.606-1.823 5.497-3.009 8.379-4.256 2.415-1.043 4.919-1.091 7.469-.896 2.871.219 5.604 1.026 8.307 1.968 1.548.54 2.962 1.261 4.129 2.475.786.817 1.811 1.403 2.595 2.221 1.015 1.059 1.896 2.244 2.832 3.376.575.696 1.245 1.336 1.7 2.103 1.324 2.239 2.134 4.667 2.371 7.271.147 1.612-1.625 4.198-3.185 4.372-.639.07-1.339-.42-2.239-.734-.334.252-1.045.701-1.656.123-.601-.569-.178-1.231.352-1.904.596.285 1.219.585 1.911.915.146-.157.406-.304.436-.488.239-1.502.512-3.005.622-4.52.097-1.333-.648-2.474-1.192-3.632-1.453-3.091-3.672-5.573-6.375-7.61-.863-.65-1.879-1.13-2.881-1.558-3.39-1.452-6.96-2.212-10.623-1.863-1.912.182-3.845.822-5.619 1.596-2.264.989-4.551 2.011-6.473 3.654-1.49 1.274-2.88 2.58-3.9 4.321-.871 1.487-1.746 2.95-2.281 4.588-.235.722-.351 1.482-.561 2.214-.216.756-.202 1.379.577 1.85.298.18.589.563.649.896.068.382-.015.896-.243 1.188-.16.204-.684.21-1.025.162-.357-.05-.691-.268-1.031-.41-.458.945-.375 1.303.577 1.6 1.268.396 2.566.736 3.876.948 3.718.603 7.441 1.205 11.181 1.646 1.442.171 2.939-.059 4.406-.167a173.93 173.93 0 0 0 6.118-.559c.801-.087 1.587-.31 2.377-.479.232-.05.488-.229.685-.173.387.109.919.257 1.053.546.128.272-.061.941-.316 1.097-.802.489-1.666.986-2.571 1.177-3.275.688-6.603 1.066-9.952.976-1.896-.052-3.79-.339-5.678-.572-2.221-.274-4.438-.59-6.652-.919-1.031-.153-2.052-.376-3.077-.57-.797-.152-.817-.144-1.314.756zM9.763 43.111c-1.141-.444-2.286-.878-3.418-1.342-.211-.086-.482-.262-.535-.449-.133-.468-.331-1.035-.176-1.435.2-.515.802-.372 1.265-.202.175.063.35.157.495.274.873.71 1.879 1.098 2.977 1.276.537.087 1.127.2 1.046.902-.083.725-.71.793-1.305.81-.096.003-.19 0-.286 0-.02.057-.041.112-.063.166z"/><path d="M40.304 29.668c-1.469 1.413-2.573 3.106-4.879 2.955-.107-.658-.12-1.112.503-1.418.893-.44 1.734-.979 2.607-1.458.476-.261.947-.685 1.769-.079z"/></g></symbol><symbol viewBox="0 0 50 50" id="eye1"><path fill-rule="evenodd" clip-rule="evenodd" d="M3.118 22.179c2.279-2.057 4.657-3.415 7.472-4.095 3.502-.847 7.029-.792 10.575-.649 1.481.06 2.975.035 4.439.235 2.789.381 5.561.898 8.341 1.353a7.27 7.27 0 0 0 1.02.104c1.92.044 3.688.562 5.389 1.466.807.43 1.748.665 2.657.824.582.102.979.38 1.216.811.254.459.569.673 1.052.832 1.571.518 1.918 1.096 1.775 2.807-.069.067-.148.18-.256.232-3.295 1.631-6.571 3.296-9.894 4.872-4.082 1.936-8.413 3.074-12.872 3.73-.616.09-1.27-.106-1.907-.138-2.109-.097-4.139-.629-6.121-1.275-1.246-.406-2.432-1.057-3.565-1.732-2.088-1.246-4.248-2.444-5.78-4.401-1.233-1.574-2.326-3.258-3.541-4.976zm2.538.32c.902 1.854 2.063 3.369 3.471 4.6 1.273 1.11 2.809 1.926 4.248 2.842 1.796 1.143 3.833 1.712 5.87 2.163 1.447.321 3.007.554 4.454.36 2.445-.327 4.875-.906 7.251-1.589 3.665-1.055 7.051-2.828 10.464-4.498.795-.391 1.716-.759 2.25-1.717-.138-.095-.234-.203-.345-.229-1.159-.268-2.059-.983-3.021-1.627-1.101-.738-2.275-1.371-3.654-1.485-1.319-.11-2.655-.171-3.948-.429-1.506-.3-2.98-.693-4.521-.875-2.849-.336-5.681-.773-8.563-.74-3.328.037-6.677-.179-9.88 1.04-1.435.544-2.878 1.061-4.076 2.184z"/></symbol><symbol viewBox="0 0 50 50" id="eye1Skin"><path fill-rule="evenodd" clip-rule="evenodd" d="M5.656 22.499c.902 1.854 2.063 3.369 3.471 4.6 1.273 1.11 2.809 1.926 4.248 2.842 1.796 1.143 3.833 1.712 5.87 2.163 1.447.321 3.007.554 4.454.36 2.445-.327 4.875-.906 7.251-1.589 3.665-1.055 7.051-2.828 10.464-4.498.795-.391 1.716-.759 2.25-1.717-.138-.095-.234-.203-.345-.229-1.159-.268-2.059-.983-3.021-1.627-1.101-.738-2.275-1.371-3.654-1.485-1.319-.11-2.655-.171-3.948-.429-1.506-.3-2.98-.693-4.521-.875-2.849-.336-5.681-.773-8.563-.74-3.328.037-6.677-.179-9.88 1.04-1.435.544-2.878 1.061-4.076 2.184z"/></symbol><symbol viewBox="0 0 50 50" id="eye1a"><g fill-rule="evenodd" clip-rule="evenodd"><path d="M45.409 26.99c-.347.354-.659.881-1.12 1.11-2.207 1.102-4.259 2.528-6.793 2.942-2.568.423-5.106 1.02-7.733 1.018-1.105 0-2.211.13-3.317.188-2.09.11-4.178.262-6.267-.103-.712-.123-1.453-.127-2.18-.124-2.414.01-4.775-.219-6.983-1.309-.194-.097-.455-.056-.775-.088.289 1.144.98 1.705 1.969 1.896 2.463.478 4.905.946 7.459.895 3.643-.076 7.248-.486 10.87-.774.377-.028.761.022 1.142.036.298.947.311 1.032-.435 1.214a23.783 23.783 0 0 1-3.157.556c-3.275.347-6.551.731-9.855.666a8.98 8.98 0 0 0-.899.014c-1.16.093-2.119-.236-2.705-1.272-.69.165-1.328.403-1.981.455-1.992.157-3.286-1.072-4.379-2.48-.41-.529-.865-.902-1.388-1.271a21.735 21.735 0 0 1-2.172-1.736c-.541-.498-.505-1.067.045-2.121.763.07 1.605.094 2.422.246.332.062.727.338.895.63.363.631.909.825 1.55.988 1.033.264 2.049.592 3.071.903 1.476.45 2.954.843 4.523.83 1.069-.009 2.139.127 3.209.17 1.109.044 2.223.111 3.329.066 2.989-.121 5.987-.189 8.962-.48 3.515-.346 6.853-1.381 9.908-3.211.253-.152.464-.38.703-.56 1.003-.759 1.38-.649 2.082.706zM5.995 25.347c-1.117.048-1.189.003-1.466-.867-.202-.634-.196-1.31-.761-1.852-.394-.379-.135-.948.413-1.369 1.589-1.217 3.441-1.879 5.311-2.495.687-.226 1.415-.332 2.093-.577 1.896-.685 3.875-.678 5.836-.69 3.109-.019 6.224-.003 9.329.163 4.094.218 8.185.578 12.171 1.601 1.059.272 2.043.847 3.052 1.297.193.085.341.308.536.348 1.63.327 2.722 1.444 3.827 2.554.307.31.662.572.389 1.085-.266.503-.733.679-1.19.466-1.031-.481-2.135-.802-2.961-1.713-1.316-1.454-3.107-2.121-4.986-2.432-2.564-.424-5.148-.75-7.732-1.04-4.515-.507-9.04-.565-13.581-.354-2.644.123-5.143.735-7.592 1.659-.12.046-.244.085-.355.146-.638.347-1.34.619-1.89 1.073-.579.476-.072 1.268-.301 1.897-.126.345-.101.743-.142 1.1z"/></g></symbol><symbol viewBox="0 0 50 50" id="eye2"><path fill-rule="evenodd" clip-rule="evenodd" d="M19.186 8.096l-.692-.436c.269-.666.592-1.13 1.412-1.091 1.426.069 2.858.041 4.283.131 2.044.13 4.092.273 6.125.528.97.121 2.047.303 2.832.824 2.101 1.388 4.183 2.849 6.042 4.534.936.848 1.465 2.203 2.017 3.403 1.145 2.487 1.782 5.156 2.018 7.856.283 3.235-.695 6.203-2.599 8.873-2.941 4.129-6.692 6.993-11.808 7.817-1.569.253-3.135.209-4.696-.082-1.637-.307-3.277-.598-4.913-.913-2.238-.431-4.189-1.569-6.199-2.556-4.115-2.018-5.706-5.634-6.16-9.927-.109-1.033-.246-2.106-.081-3.114.205-1.245.65-2.464 1.104-3.652.836-2.194 2.14-4.129 3.499-6.031.645-.902 1.344-1.708 2.271-2.334 1.838-1.239 3.651-2.517 5.545-3.83zM9.083 25.593c.083.854.191 1.707.244 2.562.131 2.156 1.107 3.92 2.574 5.421 1.896 1.941 4.386 2.839 6.903 3.548 1.918.542 3.934.723 5.892 1.142 2.812.602 5.427-.015 7.809-1.429 2.685-1.594 4.972-3.677 6.459-6.501 1.306-2.483 2.278-5.031 1.505-7.918-.16-.596-.193-1.225-.317-1.831-.545-2.664-1.629-5.068-3.43-7.131-1.308-1.498-2.971-2.549-4.665-3.498-1.301-.73-2.833-.736-4.321-.695-.505.014-1.017.039-1.516-.021-1.362-.165-2.698-.55-4.096-.133-3.121.929-5.564 2.933-7.815 5.119-1.968 1.91-3.139 4.427-4.237 6.917-.617 1.393-1 2.885-.989 4.448z"/></symbol><symbol viewBox="0 0 50 50" id="eye2Skin"><path fill-rule="evenodd" clip-rule="evenodd" d="M9.083 25.593c.083.854.191 1.707.244 2.562.131 2.156 1.107 3.92 2.574 5.421 1.896 1.941 4.386 2.839 6.903 3.548 1.918.542 3.934.723 5.892 1.142 2.812.602 5.427-.015 7.809-1.429 2.685-1.594 4.972-3.677 6.459-6.501 1.306-2.483 2.278-5.031 1.505-7.918-.16-.596-.193-1.225-.317-1.831-.545-2.664-1.629-5.068-3.43-7.131-1.308-1.498-2.971-2.549-4.665-3.498-1.301-.73-2.833-.736-4.321-.695-.505.014-1.017.039-1.516-.021-1.362-.165-2.698-.55-4.096-.133-3.121.929-5.564 2.933-7.815 5.119-1.968 1.91-3.139 4.427-4.237 6.917-.617 1.393-1 2.885-.989 4.448z"/></symbol><symbol viewBox="0 0 50 50" id="eye2a"><path fill-rule="evenodd" clip-rule="evenodd" d="M7.931 28.841c-.604-.465-1.373-.977-2.042-1.588-1.112-1.017-1.138-1.813-.089-2.905a3.67 3.67 0 0 0 .942-1.679c.618-2.312 1.352-4.598 1.959-6.914.346-1.32 1.05-2.414 1.946-3.419 1.527-1.713 3.237-3.239 5.175-4.515.395-.26.873-.408 1.323-.585 3.875-1.51 7.95-1.937 11.933-.955 4.72 1.166 8.719 3.583 10.941 8.052.633 1.271 1.294 2.533 1.866 3.83.673 1.533.507 3.13.133 4.695-.195.817-.642 1.064-1.897 1.343-.543-.619-.514-1.403-.434-2.119.431-3.853-1.82-6.687-3.896-9.574-.398-.553-1.064-.972-1.687-1.324-1.892-1.075-3.812-2.127-5.983-2.589-2.37-.503-4.742-.335-7.108.127-3.021.591-5.248 2.289-7.305 4.412-1.752 1.809-2.56 3.964-3.225 6.232a24.303 24.303 0 0 0-.591 2.474c-.117.637-.13 1.293-.185 1.884.895.725 2.34.821 2.181 2.307-.797.622-1.57.656-2.4.06-.448-.324-.951-.688-1.629-.115a6.558 6.558 0 0 0 3.446 2.028c1.842.436 3.698.839 5.568 1.146 1.44.235 2.909.31 4.366.439 4.096.361 8.184.453 12.223-.467 1.567-.357 3.082-.862 4.48-1.906l-1.758-3.292c.861-.597 1.495-.122 2.135.284.49.31.977.627 1.41.907-.527.369.09.82.34 1.022.635.512.622 1.163.612 1.803-.009.625-.269 1.134-.944 1.453-2.825 1.331-5.727 2.38-8.918 2.51-1.708.071-3.415.221-5.124.243-1.116.015-2.236-.126-3.352-.213-3.751-.294-7.48-.729-11.138-1.777-.413.866-.03 1.551.286 2.208.982 2.037 2.549 3.484 4.684 4.444 3.802 1.711 7.797 2.347 11.955 2.208 1.681-.056 3.038-.924 4.415-1.715 2.038-1.168 3.082-3.236 4.66-4.823.534-.538.956-1.18 1.42-1.78.353-.457.79-.727 1.386-.503.438.163.98 1.253.775 1.652a12.499 12.499 0 0 1-1.196 1.919c-.873 1.131-1.812 2.213-2.713 3.324-.981 1.213-2.241 2.067-3.646 2.776-2.394 1.21-4.918 1.85-7.616 1.588a45.57 45.57 0 0 1-5.208-.79c-2.884-.623-5.588-1.652-7.947-3.458-1.703-1.304-2.811-2.974-3.671-4.839-.237-.513-.491-1.033-.626-1.574-.14-.553-.143-1.14-.232-1.952z"/></symbol><symbol viewBox="0 0 50 50" id="eyeBall0"><circle cx="25" cy="25" r="5"/></symbol><symbol viewBox="0 0 50 50" id="eyeBall1"><path d="M31.294 30.091c.2-2.098-.534-2.562-2.189-2.428-2.39.192-4.806.033-7.209.1-.581.016-1.609.263-1.643.513-.095.695.014 1.602.416 2.15 1.48 2.024 5.226 2.595 7.731 1.312.662-.341 1.313-.697 2.081-1.107-1.714 2.819-6.633 3.498-9.904 1.493-3.938-2.416-5.153-7.691-2.668-11.587 2.482-3.892 7.756-4.993 11.644-2.429 3.934 2.597 4.784 7.396 1.741 11.983zm-9.377-9.521c-1.418.049-2.641 1.319-2.642 2.592 0 1.219 1.353 2.479 2.622 2.439 1.384-.043 2.713-1.373 2.559-2.664-.185-1.547-1.242-2.201-2.539-2.367z"/><path fill="#FFF" d="M21.917 20.516c1.297.165 2.354.819 2.539 2.367.154 1.291-1.175 2.621-2.559 2.665-1.269.037-2.622-1.222-2.622-2.44 0-1.275 1.223-2.543 2.642-2.592z"/></symbol><symbol viewBox="0 0 50 50" id="eyeLid"><path d="M.833 0h50v50h-50z"/></symbol><symbol viewBox="0 0 100 100" id="face0"><path d="M49.987 98.562h-.071a38.644 38.644 0 0 1-4.789-.36c-3.96-.537-7.704-1.618-11.129-3.212l-.509-.236c-1.944-.901-3.955-1.834-5.68-3.149-.396-.302-.743-.643-1.079-.973-.15-.147-.3-.295-.454-.438a5.59 5.59 0 0 1-.216-.22c-.122-.128-.236-.25-.35-.311-1.83-.976-3.198-2.381-4.337-3.622-.042-.046-.082-.096-.122-.146-.026-.033-.065-.084-.081-.097-2.675-1.729-4.835-3.888-6.819-5.95-1.831-1.906-3.216-4.073-4.479-6.13-1.426-2.325-2.433-4.777-2.992-7.289-.162-.727-.407-1.43-.667-2.176a26.19 26.19 0 0 1-.566-1.757c-.562-2.068-.859-4.266-.906-6.717a93.363 93.363 0 0 0-.117-2.899c-.06-1.195-.123-2.432-.125-3.655-.003-1.28.053-2.576.107-3.829.042-.975.084-1.95.1-2.925.037-2.307.378-4.606.709-6.83.088-.59.175-1.179.258-1.77.368-2.636.681-5.325.984-7.925l.333-2.834a27.637 27.637 0 0 1 1.808-7.018c.153-.381.258-.781.37-1.204.208-.788.422-1.603.971-2.349.229-.311.448-.627.667-.943.842-1.215 1.713-2.472 3.134-3.417 2.479-1.648 5.365-2.55 7.911-3.345.452-.141.885-.321 1.344-.512.469-.196.955-.398 1.462-.554 1.085-.333 2.211-.589 3.3-.837l.231-.052c.428-.097.86-.176 1.292-.255.479-.087.958-.174 1.429-.288 1.735-.421 3.482-.604 5.123-.756 1.905-.175 3.835-.199 5.472-.199l3.138.01c.564 0 1.128-.003 1.692-.012h.002c.325 0 .593.063.853.124.182.042.364.088.548.097.201.023.398-.041.602-.085.117-.025.234-.051.35-.07.561-.094 1.005-.018 1.229.174.208-.121.427-.226.688-.226.406.01.79.015 1.175.021 1.4.02 2.849.04 4.244.279.45.077.886.085 1.347.094.348.007.693.014 1.041.049 1.205.124 2.79.299 4.373.56.182.03.372.038.563.048.504.025 1.114.056 1.625.437.809-.223 1.686-.004 2.45.236.325.102.632.199.935.25 3.52.603 6.949 1.239 10.212 2.377.094.033.193.055.292.078.09.021.179.042.267.067.31.088.641.14.992.195.896.14 1.909.297 2.662 1.164.059.025.387.049.582.062.176.013.35.026.503.05.362.058.727.108 1.092.159.714.099 1.453.202 2.175.357 2.938.631 4.931 2.299 5.921 4.955 1.062 2.849 1.509 5.766 1.778 7.988.133 1.093.296 2.183.459 3.273.175 1.166.35 2.332.487 3.501.108.938.098 1.918-.033 2.916-.288 2.178-.168 4.401-.052 6.551.087 1.584.079 3.192.072 4.748-.003.681-.007 1.361-.002 2.042l-.002.419c-.003.214-.005.428.004.641.084 1.916-.16 3.825-.396 5.672l-.037.293c-.024.183-.025.366-.028.549l-.002.147c-.01 1.32-.168 2.642-.32 3.92l-.12 1.036c-.2 1.789-.509 3.54-.808 5.234-.516 2.928-1.385 5.528-2.658 7.948-.055.105-.099.216-.144.325-1.105 2.743-2.932 5.229-5.594 7.631-1.126 1.015-2.234 2.083-3.307 3.116-.888.856-1.775 1.712-2.685 2.55-.585.54-1.212 1.051-1.818 1.545-.548.446-1.096.892-1.616 1.361-1.595 1.438-3.402 2.68-5.151 3.88-.448.308-.897.616-1.344.928l-.213.149c-1.411.985-2.87 2.006-4.383 2.926-.689.42-1.457.734-2.199 1.038-.262.107-.523.215-.781.326-.367.161-.78.319-1.128.233-.768-.187-1.348.144-2.02.562-.229.142-.456.283-.692.402-.581.294-1.189.538-1.777.774l-.663.271c-.622.26-1.317.317-1.989.372-.257.021-.514.043-.764.076-.303.04-.606.091-.911.141-.726.122-1.476.245-2.233.245zM5.693 43.117c-.021.774-.054 1.548-.087 2.322-.053 1.242-.109 2.526-.106 3.784.002 1.199.064 2.423.125 3.606.049.977.099 1.953.118 2.931.045 2.368.33 4.486.871 6.475.155.568.351 1.129.546 1.689.258.74.524 1.505.698 2.288.535 2.402 1.5 4.752 2.869 6.982 1.284 2.094 2.583 4.125 4.347 5.96 1.943 2.021 4.056 4.133 6.645 5.807.152.099.251.227.324.32l.068.083c1.083 1.181 2.381 2.515 4.074 3.417.257.139.441.333.604.505.057.061.113.12.173.177.16.147.316.302.473.456.328.322.637.627.983.891 1.639 1.249 3.599 2.158 5.495 3.037l.51.237c3.333 1.551 6.981 2.604 10.842 3.128a37.42 37.42 0 0 0 4.665.351l.061.5v-.5c.675 0 1.353-.111 2.071-.229.313-.052.628-.104.941-.146.267-.036.54-.059.813-.081.622-.052 1.209-.1 1.687-.299l.675-.275c.568-.229 1.156-.465 1.699-.739.21-.106.412-.232.615-.359.58-.36 1.237-.769 2.096-.769.226 0 .457.029.689.086.087-.003.309-.1.441-.157.316-.138.584-.247.852-.357.738-.302 1.436-.588 2.059-.967 1.485-.903 2.932-1.914 4.329-2.892l.214-.149a229.3 229.3 0 0 1 1.351-.933c1.722-1.182 3.501-2.403 5.047-3.797.533-.48 1.094-.938 1.654-1.395.595-.484 1.21-.985 1.772-1.504.903-.833 1.786-1.685 2.669-2.535a136.078 136.078 0 0 1 3.33-3.139c2.547-2.298 4.289-4.663 5.324-7.231a4.86 4.86 0 0 1 .197-.446c1.225-2.329 2.062-4.833 2.56-7.658.296-1.679.602-3.414.798-5.171l.122-1.044c.148-1.251.303-2.545.312-3.815l.002-.146c.003-.223.007-.446.037-.666l.036-.291c.231-1.805.47-3.671.389-5.502a13.427 13.427 0 0 1-.004-.695l.002-.4c-.004-.638-.002-1.276.001-1.914l-1.324.46-.387-1.413.975-.294.269.347.468.895.001-.134c.007-1.541.015-3.134-.07-4.689-.119-2.196-.242-4.466.058-6.736a10.77 10.77 0 0 0 .031-2.669c-.136-1.158-.309-2.313-.481-3.469-.165-1.1-.33-2.2-.463-3.302-.264-2.167-.697-5.008-1.724-7.759-.875-2.348-2.574-3.764-5.194-4.327-.69-.148-1.41-.248-2.107-.345a51.214 51.214 0 0 1-1.111-.162 5.025 5.025 0 0 0-.416-.04c-.48-.034-.976-.069-1.267-.404-.513-.59-1.23-.702-2.062-.831-.365-.057-.744-.116-1.114-.222-.072-.021-.146-.038-.218-.055a3.866 3.866 0 0 1-.394-.107c-2.593-.905-5.312-1.488-8.106-1.995l1.261 1.816-1.5-.562c-.628-.236-.943-.354-1.075-.697-.104-.271-.015-.509.116-.77l-.746-.129a8.008 8.008 0 0 1-1.066-.282c-.741-.232-1.445-.41-2.082-.159l-.319.126-.232-.251c-.262-.283-.624-.315-1.192-.344a5.92 5.92 0 0 1-.675-.06 73.448 73.448 0 0 0-4.312-.551c-.32-.033-.639-.038-.959-.044-.478-.009-.972-.019-1.496-.109-1.318-.227-2.727-.246-4.089-.265a89.57 89.57 0 0 1-1.163-.021c-.046.007-.195.096-.294.156a4.392 4.392 0 0 1-.362.201l-.649.313-.061-.663c-.167 0-.275.014-.385.032-.1.017-.201.039-.301.061a3.577 3.577 0 0 1-.776.109 4.04 4.04 0 0 1-.818-.124 4.022 4.022 0 0 0-.446-.088l-.517 1.298-1.097-.237.208-1.059-.467.001h-.12l-.046.273c-.022.141-.046.28-.091.415l-.115.34-.39.006c-.046 0-.124-.007-.201-.016l-.596-.041.054-.589.098-.394-1.731-.006c-.523 0-1.077.002-1.649.012l.317.541-1.501.795-.717-1.187.262-.102c-.691.029-1.394.072-2.092.137-1.604.148-3.309.327-4.979.731-.489.119-.987.209-1.485.3-.418.076-.836.152-1.249.246l-.231.052c-1.072.245-2.179.497-3.229.819-.461.142-.903.326-1.371.521-.459.191-.935.389-1.43.544-2.482.775-5.295 1.654-7.655 3.224-1.261.838-2.041 1.963-2.866 3.153-.225.324-.449.648-.684.967-.436.592-.617 1.281-.809 2.011-.114.434-.232.882-.409 1.322a26.638 26.638 0 0 0-1.742 6.763l-.333 2.832c-.199 1.708-.402 3.456-.623 5.202l.295.437-.274.185.016.021.303-.144c.067.091.159.216.208.379l.073.244-.159.217c-.097.128-.36.317-.617.317h-.06c-.048.364-.098.727-.148 1.089a211.34 211.34 0 0 1-.259 1.778c-.287 1.929-.583 3.917-.673 5.894l.784.044-.153.59c-.055.218-.087.346-.133.47l-.122.325-.382.005h-.034z"/></symbol><symbol viewBox="0 0 100 100" id="face0Skin"><path fill-rule="evenodd" clip-rule="evenodd" d="M49.731 2.302c.347-.167.621-.413.886-.406 1.779.045 3.593-.005 5.323.292.838.143 1.623.067 2.422.148a72.36 72.36 0 0 1 4.343.555c.73.12 1.584-.058 2.153.558 1.231-.488 2.296.222 3.417.413 3.433.588 6.861 1.216 10.131 2.357.188.065.392.098.585.154 1.163.333 2.521.177 3.415 1.206.221.254.909.203 1.384.279 1.081.171 2.177.282 3.24.511 2.849.612 4.646 2.194 5.558 4.641.958 2.567 1.427 5.202 1.751 7.874.273 2.261.68 4.51.945 6.772.107.921.089 1.872-.032 2.792-.293 2.217-.175 4.424-.055 6.643.123 2.251.055 4.51.069 6.766.003.359-.013.719.002 1.077.087 1.973-.181 3.926-.43 5.881-.033.247-.029.5-.034.75-.013 1.647-.256 3.274-.438 4.911-.195 1.747-.498 3.474-.803 5.202-.476 2.7-1.3 5.314-2.608 7.803-.068.131-.122.267-.177.401-1.149 2.851-3.06 5.257-5.453 7.416-2.049 1.847-3.971 3.803-5.995 5.67-1.094 1.009-2.323 1.903-3.431 2.902-1.971 1.777-4.247 3.231-6.446 4.769-1.498 1.047-2.995 2.101-4.569 3.058-.893.544-1.934.906-2.919 1.333-.252.109-.579.264-.812.207-1.315-.322-2.111.525-3.056 1.003-.777.393-1.608.696-2.407 1.029-.776.324-1.742.297-2.626.414-1.047.141-2.098.391-3.145.38a38.126 38.126 0 0 1-4.727-.355c-3.854-.523-7.523-1.559-10.986-3.17-2.124-.989-4.269-1.937-6.096-3.33-.544-.414-.999-.918-1.495-1.38-.22-.206-.405-.462-.67-.604-1.698-.905-2.98-2.185-4.206-3.52-.099-.107-.174-.243-.295-.322-2.58-1.668-4.675-3.739-6.734-5.88-1.788-1.86-3.125-3.946-4.413-6.045-1.366-2.228-2.37-4.618-2.931-7.136-.297-1.339-.877-2.627-1.238-3.955-.586-2.166-.843-4.369-.886-6.596-.042-2.184-.237-4.364-.242-6.546-.005-2.248.171-4.496.207-6.745.045-2.873.566-5.697.962-8.538.5-3.583.889-7.178 1.318-10.769a26.96 26.96 0 0 1 1.775-6.89c.457-1.138.509-2.396 1.279-3.442 1.1-1.493 1.976-3.11 3.675-4.24C16.571 7.033 19.27 6.167 22 5.314c.958-.298 1.845-.771 2.804-1.065 1.143-.351 2.322-.613 3.496-.88.903-.205 1.83-.327 2.728-.544 1.657-.402 3.343-.586 5.051-.744 3.42-.314 6.844-.143 10.265-.199.455-.007.91.198 1.37.221.347.016.704-.103 1.057-.162.471-.078.917-.108.96.361zm20.341 3.18c-.289-.417-.443-.64-.624-.899-.29.557-.29.557.624.899zM38.688 2.794l.166.274.622-.329-.121-.205c-.222.088-.444.174-.667.26zM6.644 32.18c.083.1.132.214.215.239.06.017.246-.105.238-.133-.033-.109-.121-.205-.188-.306l-.265.2zm-.765 10.011l-.288-.018c-.01.143-.022.286-.022.43 0 .003.186.023.192.008.051-.135.081-.278.118-.42zm38.12-39.708l-.266-.023-.111.445c.101.007.283.036.289.017.047-.141.062-.291.088-.439zm1.914.066l-.303-.103-.141.617.22.047.224-.561zm47.942 38.726l-.186.056.116.423c.09-.032.181-.062.271-.093l-.201-.386z"/></symbol><symbol viewBox="0 0 100 100" id="face1"><path d="M52.781 98.53c-1.139 0-2.28-.033-3.41-.069-2.979-.095-5.839-.596-9.217-1.317-.721-.155-1.416-.384-2.089-.604-.265-.087-.529-.174-.795-.256-3.591-1.11-6.958-2.888-10.008-5.281-.289-.227-.591-.445-.894-.666-.744-.539-1.513-1.098-2.136-1.794-.505-.563-1.044-1.107-1.583-1.652-.359-.363-.719-.727-1.069-1.096a904.567 904.567 0 0 1-4.568-4.865 2.164 2.164 0 0 1-.29-.423l-.087-.147c-1.577-1.826-2.938-3.968-4.28-6.729l-.161-.339c-.161-.343-.313-.667-.506-.965-1.596-2.47-2.338-5.156-2.903-7.691a1.85 1.85 0 0 1-.024-.146c-1.311-1.853-1.786-3.894-2.245-5.868-.136-.583-.271-1.165-.429-1.742l-.503-.614h.328l-.087-.306c-.316-1.085-.644-2.207-.874-3.334-.799-3.925-1.068-6.956-.872-9.828.064-.945.177-1.897.286-2.818a48.138 48.138 0 0 0 .264-2.582c.06-.75.122-1.526.255-2.292.332-1.9.674-3.857 1.208-5.759.174-.62.55-1.165.914-1.692.196-.284.394-.569.552-.863.519-.962.975-1.95 1.313-2.704.455-1.009 1.187-1.853 1.896-2.668.315-.363.63-.726.919-1.102 1.3-1.696 2.966-3.146 4.577-4.547.658-.573 1.316-1.146 1.95-1.735 1.667-1.55 3.65-2.816 5.895-3.766 1.409-.597 2.791-1.301 4.127-1.981.994-.506 1.988-1.013 3.006-1.484a22.997 22.997 0 0 1 3.883-1.41c1.175-.305 2.204-.799 3.292-1.323.516-.248 1.031-.496 1.561-.722 1.185-.505 2.528-1.077 4.055-1.077.366 0 .736.033 1.1.098.237.043.537-.053.839-.137l.147-.041c1.399-.379 2.754-.749 4.238-.64a2.27 2.27 0 0 0 .388-.052c3.67-.753 7.341-.693 12.448.222 1.309.234 2.583.477 3.803.861A43.886 43.886 0 0 1 71.7 4.35c1.81.812 3.567 1.738 5.213 2.616 3.334 1.78 6.035 4.262 8.027 7.377.233.364.519.71.819 1.076.221.268.441.536.644.813.385.527.784 1.051 1.184 1.574.988 1.296 2.011 2.636 2.817 4.048a40.788 40.788 0 0 1 3.011 6.661c.85 2.416 1.635 4.792 1.905 7.302.327 3.038.29 6.109.255 9.079-.012.933-.023 1.865-.023 2.797-.001 1.631-.087 3.063-.262 4.379-.159 1.182-.395 2.367-.623 3.515-.115.581-.231 1.162-.337 1.745-.047.255-.08.512-.114.768-.052.391-.104.78-.193 1.164a176.775 176.775 0 0 1-.874 3.552l-.226.895a43.672 43.672 0 0 1-2.315 6.812c-.282.646-.522 1.305-.763 1.964-.283.777-.576 1.582-.938 2.36l-.309.669c-1.056 2.286-2.147 4.65-3.875 6.732-1.329 1.604-2.831 3.14-4.284 4.624l-.964.988c-.918.945-1.867 1.923-2.978 2.758-3.24 2.444-6.534 4.21-10.069 5.396-2.482.834-5.774 1.847-9.218 2.275-1.305.165-2.712.241-4.429.241zM22.436 85.242c.304.317.614.631.925.944.55.557 1.101 1.112 1.617 1.688.552.617 1.277 1.143 1.979 1.651.313.228.625.454.924.688 2.953 2.318 6.212 4.039 9.687 5.113.271.084.541.173.811.261.648.213 1.318.433 1.987.576 3.325.711 6.135 1.204 9.039 1.296 1.12.036 2.25.069 3.378.069 1.674 0 3.042-.074 4.306-.231 3.354-.418 6.584-1.412 9.022-2.23 3.431-1.152 6.632-2.869 9.786-5.248 1.049-.788 1.971-1.738 2.862-2.656l.966-.99c1.438-1.471 2.927-2.991 4.229-4.563 1.645-1.98 2.708-4.285 3.736-6.513l.31-.67c.343-.74.629-1.524.905-2.282.243-.664.493-1.352.786-2.021a42.637 42.637 0 0 0 2.262-6.655l.226-.896c.298-1.175.596-2.352.869-3.531.082-.353.129-.711.177-1.07.036-.271.072-.544.121-.814.107-.589.224-1.175.341-1.762.225-1.132.457-2.302.612-3.452.169-1.271.252-2.66.253-4.247 0-.936.012-1.872.023-2.808.035-2.94.072-5.981-.249-8.959-.26-2.403-1.025-4.72-1.854-7.078a39.652 39.652 0 0 0-2.937-6.497c-.773-1.354-1.774-2.667-2.744-3.938-.403-.529-.807-1.057-1.196-1.591-.19-.261-.398-.514-.606-.767-.307-.373-.624-.757-.89-1.172-1.899-2.969-4.476-5.336-7.656-7.035-1.63-.87-3.37-1.787-5.151-2.585a42.727 42.727 0 0 0-4.597-1.725c-1.163-.367-2.403-.603-3.678-.831-2.717-.49-4.967-.717-7.081-.717a24.44 24.44 0 0 0-4.967.483 2.805 2.805 0 0 1-.578.078l-.106-.004c-1.312-.091-2.535.237-3.829.587l-.214.059c-.395.11-.87.232-1.287.159a5.22 5.22 0 0 0-.923-.083c-1.322 0-2.512.507-3.663.997-.516.22-1.017.461-1.519.703-1.084.521-2.206 1.061-3.476 1.39-1.199.31-2.448.764-3.713 1.35a91.106 91.106 0 0 0-2.973 1.468c-1.352.688-2.75 1.4-4.191 2.011-2.137.904-4.022 2.107-5.604 3.577-.641.596-1.308 1.176-1.974 1.756-1.573 1.37-3.2 2.786-4.44 4.402-.301.393-.629.771-.958 1.149-.691.796-1.345 1.547-1.738 2.422a43.41 43.41 0 0 1-1.346 2.768c-.175.326-.392.642-.609.956-.332.481-.645.935-.774 1.395-.52 1.853-.857 3.785-1.184 5.654-.126.727-.187 1.479-.245 2.207-.031.388-.062.775-.103 1.162-.051.486-.108.971-.165 1.457-.107.909-.218 1.848-.281 2.769-.19 2.779.073 5.728.853 9.561.09.442.197.888.313 1.332l2.507 2.397-1.267-.016a5.359 5.359 0 0 1-.573-.032l.045.155h1.73l-.174.633c-.109.414-.29 1.101-1.11 1.11l.09.387c.27 1.156.53 2.275.946 3.344l.207-1.239 1.362.276-.478 1.495-.927-.136c.263.607.585 1.197.996 1.767.12.168.143.342.158.457.553 2.503 1.264 5.087 2.775 7.425.229.354.403.726.571 1.083l.155.326c1.126 2.32 2.263 4.184 3.532 5.782.259-.256.734-.271.76-.272.343 0 .577.281.62.338l.15.194-.029.318c-.064.252-.245.433-.43.589-.04.033-.082.065-.124.097l.012.013c1.114 1.193 2.231 2.389 3.354 3.581a.559.559 0 0 1 .227-.167c.2-.083.38-.124.547-.124.367 0 .837.185.989 1.066l.143.832-.57-.196z"/></symbol><symbol viewBox="0 0 100 100" id="face1Skin"><path fill-rule="evenodd" clip-rule="evenodd" d="M17.089 80.119c-1.809-2.074-3.139-4.352-4.284-6.709-.222-.456-.417-.926-.696-1.356-1.528-2.364-2.255-4.927-2.834-7.528-.024-.111-.018-.24-.084-.333-1.728-2.398-1.951-5.148-2.71-7.772-.373-1.291-.772-2.585-1.039-3.894-.653-3.207-1.085-6.436-.862-9.694.096-1.417.3-2.828.448-4.243.118-1.132.156-2.273.351-3.397.334-1.912.669-3.83 1.196-5.709.242-.861.977-1.623 1.424-2.453.484-.897.915-1.815 1.33-2.736.62-1.377 1.822-2.455 2.755-3.67 1.79-2.333 4.275-4.18 6.47-6.22 1.598-1.486 3.525-2.731 5.749-3.671 2.456-1.041 4.737-2.354 7.149-3.472a22.563 22.563 0 0 1 3.797-1.38c1.799-.466 3.292-1.372 4.924-2.069 1.545-.658 3.042-1.273 4.871-.947.369.067.816-.082 1.206-.188 1.325-.358 2.642-.724 4.071-.624.179.013.371-.029.547-.065 4.104-.842 8.18-.499 12.236.229 1.264.227 2.539.467 3.74.846a43.023 43.023 0 0 1 4.651 1.746c1.774.796 3.484 1.694 5.182 2.601 3.405 1.818 5.961 4.266 7.842 7.206.427.666 1.007 1.266 1.479 1.914 1.349 1.847 2.862 3.634 3.971 5.576a40.16 40.16 0 0 1 2.974 6.579c.826 2.35 1.612 4.712 1.88 7.19.425 3.943.23 7.881.229 11.822-.001 1.438-.067 2.884-.258 4.313-.235 1.754-.638 3.49-.956 5.236-.115.635-.157 1.279-.303 1.909-.344 1.482-.726 2.959-1.098 4.437a42.708 42.708 0 0 1-2.288 6.733c-.621 1.422-1.042 2.904-1.696 4.314-1.165 2.507-2.265 5.062-4.115 7.292-1.604 1.937-3.439 3.747-5.222 5.583-.914.941-1.842 1.896-2.92 2.707-2.941 2.219-6.202 4.071-9.928 5.322-2.951.991-5.985 1.862-9.12 2.253-2.541.317-5.179.248-7.762.166-3.1-.099-6.132-.666-9.128-1.307-.971-.209-1.897-.557-2.84-.849-3.736-1.155-7-2.962-9.847-5.197-.991-.777-2.131-1.467-2.966-2.399-.846-.943-1.784-1.833-2.662-2.759a903.413 903.413 0 0 1-4.565-4.862c-.135-.147-.213-.329-.32-.496.159-.112.333-.212.478-.333.114-.097.237-.211.269-.334.016-.062-.159-.226-.245-.224-.154.004-.418.078-.436.154-.061.246-.03.506-.035.762zM6.642 56.763c.271.331.428.717.638.738.587.058.646-.363.75-.738H6.642zm.846-1.123c-.41-.393-.695-.667-1.038-.993.068.98.068.98 1.038.993zm14.883 29.051c-.114-.661-.394-.756-.856-.563-.056.022-.073.109-.141.221l.997.342zM9.392 61.157l-.339-.069a66.55 66.55 0 0 1-.1.592l.241.035.198-.558z"/></symbol><symbol viewBox="0 0 100 100" id="face2"><path d="M54.33 98.01c-2.341 0-4.618-.372-7.139-.821-2.761-.491-5.388-1.216-7.808-2.152a13.65 13.65 0 0 1-2.088-1.03 466.186 466.186 0 0 1-7.691-4.716c-.895-.563-2.056-1.324-3.103-2.211-.453-.385-.911-.765-1.368-1.146-1.832-1.522-3.726-3.098-5.288-4.895-.635-.73-1.288-1.451-1.94-2.172-2.214-2.444-4.503-4.973-6.064-7.872a249.087 249.087 0 0 1-2.51-4.835l-.75-1.47c-.438-.854-.892-1.736-1.264-2.637-.192-.462-.102-.967-.002-1.404a.954.954 0 0 0 .033-.215c0 .002-.068-.034-.212-.078-.529-.16-.82-.781-.909-1.123a83.467 83.467 0 0 0-.445-1.63c-.476-1.694-.969-3.446-1.079-5.254-.05-.823-.112-1.646-.175-2.47-.119-1.568-.242-3.189-.272-4.792-.013-.645.111-1.274.23-1.883.112-.574.219-1.115.212-1.645-.007-.594-.016-1.268.093-1.962.473-3.007 1.061-6.75 2.199-10.258.418-1.292 1.033-2.651 1.934-4.276 1.27-2.291 2.48-4.287 3.701-6.101.694-1.031 1.67-1.92 2.531-2.673l.858-.753c2.232-1.963 4.541-3.994 7.335-5.563.774-.435 1.521-.944 2.242-1.437a46.258 46.258 0 0 1 1.542-1.023c.384-.24.801-.431 1.204-.615.208-.095.416-.19.617-.292 2.939-1.477 5.602-2.626 8.14-3.517 1.393-.488 2.872-.802 4.524-.959a90.266 90.266 0 0 0 6.639-.871c1.359-.233 2.684-.263 3.686-.263.568 0 1.136.011 1.704.022l1.05.018c3.029.036 6.181.648 9.92 1.927.956.327 1.99.613 3.073.85.651.143 1.725.377 2.241 1.311l.259-.385.385.172c.642.286 1.284.568 1.927.851 1.531.672 3.115 1.367 4.641 2.103.324.157.659.3.994.443.897.384 1.825.782 2.604 1.447 1.514 1.294 2.856 2.482 3.977 3.933 1.479 1.916 2.496 4.013 3.479 6.042.318.656.637 1.312.971 1.962.933 1.818 1.795 3.692 2.63 5.504.341.739.681 1.479 1.027 2.216.906 1.938 1.442 3.968 1.961 5.932.131.495.262.99.397 1.484.802 2.902 1.149 5.945 1.064 9.3a56.811 56.811 0 0 1-.669 7.396c-.473 2.988-1.382 6.101-2.701 9.251l-.175.418c-1.66 3.966-3.377 8.066-6.5 11.593-.442.497-.844 1.048-1.232 1.58-.54.74-1.099 1.506-1.796 2.182-1.156 1.124-2.199 2.361-3.207 3.559-1.07 1.27-2.177 2.583-3.438 3.788l-1.024.986c-1.61 1.557-3.276 3.166-5.163 4.579-1.995 2.02-4.582 3.363-7.081 4.515a21.997 21.997 0 0 1-6.207 1.847c-.88.127-1.771.188-2.724.188zM25.159 84.653l.614.512c.46.383.92.765 1.375 1.151 1 .846 2.122 1.582 2.989 2.128a464.827 464.827 0 0 0 7.675 4.704c.633.382 1.284.703 1.934.956 2.359.913 4.923 1.619 7.621 2.1 2.474.44 4.705.806 6.964.806.905 0 1.751-.058 2.583-.176a20.943 20.943 0 0 0 5.929-1.765c2.238-1.031 4.543-2.217 6.37-3.903-.164-.141-.269-.306-.266-.531.005-.439.373-.634 1.041-.987l.97-.514-.164.704c1.423-1.167 2.737-2.437 4.018-3.674l1.027-.989c1.223-1.168 2.311-2.46 3.364-3.71 1.023-1.216 2.083-2.473 3.275-3.632.636-.616 1.146-1.314 1.685-2.053.402-.552.818-1.122 1.292-1.655 3.013-3.401 4.697-7.424 6.325-11.314l.176-.419c1.288-3.076 2.175-6.111 2.635-9.021.182-1.15.328-2.319.437-3.502l-1.172-.062.203-.707c.038-.135.076-.271.129-.401l.127-.312.368-.006c.038 0 .097.004.155.01l.304.03c.052-.769.087-1.541.106-2.315.083-3.256-.253-6.203-1.028-9.009-.137-.498-.269-.997-.4-1.495-.508-1.921-1.032-3.908-1.9-5.763-.347-.739-.688-1.48-1.029-2.222-.83-1.803-1.688-3.667-2.612-5.467a95.807 95.807 0 0 1-.979-1.982c-.962-1.983-1.956-4.033-3.371-5.867-1.062-1.375-2.365-2.527-3.835-3.784-.663-.566-1.481-.917-2.349-1.288a25.401 25.401 0 0 1-1.035-.462c-1.509-.728-3.084-1.419-4.606-2.088l-1.55-.682-1.28 1.898-.043-1.559c-.027-1-.562-1.284-1.751-1.544a29.468 29.468 0 0 1-3.184-.88c-3.635-1.244-6.688-1.839-9.607-1.874l-1.061-.018c-.562-.011-1.123-.022-1.685-.022-.963 0-2.232.028-3.517.249-2.102.36-4.361.657-6.713.88-1.57.15-2.973.447-4.288.908-2.498.876-5.121 2.01-8.021 3.467-.213.107-.432.207-.651.307-.391.179-.76.348-1.089.553-.514.321-1.011.661-1.509 1.001-.259.176-.52.355-.786.532v2.439l-.812-.651c-.369-.295-.559-.595-.581-.915l-.138.079c-2.703 1.517-4.971 3.512-7.165 5.442l-.86.755c-.813.71-1.733 1.547-2.359 2.478-.363.54-.726 1.096-1.089 1.671l.099.054c.175.114.434.281.424.608-.006.205-.093.361-.17.499l-.389.787-.497-.514a2.208 2.208 0 0 0-.13-.121 1.65 1.65 0 0 1-.095-.088 95.939 95.939 0 0 0-1.81 3.13c-.112.201-.219.398-.321.591l.551-.229.419.415.328.446-.601.434-.836.495-.375-.549a19.5 19.5 0 0 0-1.022 2.498c-1.114 3.434-1.695 7.133-2.162 10.105-.096.611-.088 1.239-.082 1.794.008.633-.113 1.252-.23 1.85-.114.583-.222 1.133-.211 1.671.03 1.575.152 3.182.27 4.736.063.828.126 1.657.176 2.485.042.678.142 1.354.277 2.028l.316-.876.628 1.011c.169.251.401.595.292 1.021a.95.95 0 0 1-.251.435l.785 1.794-.816.304c.09.326.178.651.263.978.05.193.181.387.245.423.982.297.971.94.851 1.467-.047.207-.135.592-.049.798.357.864.801 1.729 1.23 2.563l.752 1.473c.82 1.609 1.641 3.22 2.5 4.814 1.503 2.793 3.75 5.275 5.924 7.676.658.726 1.314 1.451 1.954 2.187.952 1.096 2.045 2.117 3.175 3.097l1.116-.637.983 1.383-.717.424z"/></symbol><symbol viewBox="0 0 100 100" id="face2Skin"><path fill-rule="evenodd" clip-rule="evenodd" d="M70.014 91.086c-1.902 1.934-4.383 3.249-6.962 4.438a21.627 21.627 0 0 1-6.068 1.806c-3.315.471-6.51-.063-9.705-.633-2.661-.474-5.245-1.17-7.715-2.126a13.188 13.188 0 0 1-2.011-.993 463.41 463.41 0 0 1-7.683-4.71c-1.064-.671-2.112-1.379-3.045-2.17-2.28-1.934-4.685-3.78-6.602-5.986-2.807-3.229-5.96-6.271-7.941-9.953-1.074-1.996-2.089-4.015-3.118-6.027-.485-.947-.982-1.895-1.384-2.868-.137-.328-.059-.742.023-1.102.1-.435.08-.7-.522-.883-.271-.082-.496-.483-.57-.771-.58-2.25-1.368-4.47-1.509-6.788-.146-2.414-.4-4.826-.446-7.241-.023-1.173.457-2.352.442-3.524-.008-.633-.012-1.247.087-1.878.538-3.422 1.098-6.846 2.18-10.182.465-1.435 1.146-2.836 1.896-4.188 1.139-2.056 2.35-4.09 3.679-6.064.635-.944 1.54-1.785 2.445-2.576 2.545-2.223 5.011-4.517 8.109-6.256 1.331-.748 2.519-1.667 3.805-2.472.549-.343 1.189-.586 1.781-.883 2.604-1.308 5.273-2.507 8.081-3.492 1.417-.497 2.872-.787 4.406-.934a90.575 90.575 0 0 0 6.676-.875c2.117-.363 4.234-.241 6.349-.216 3.411.041 6.629.828 9.764 1.9 1.015.347 2.067.633 3.129.865 1.148.251 2.104.608 2.144 2.019l.644-.954c2.195.979 4.409 1.912 6.554 2.947 1.183.571 2.489.965 3.491 1.82 1.416 1.211 2.792 2.417 3.905 3.858 1.914 2.481 3.028 5.251 4.4 7.927 1.302 2.538 2.443 5.133 3.649 7.705 1.11 2.373 1.647 4.868 2.33 7.337.835 3.024 1.124 6.086 1.046 9.154a56 56 0 0 1-.663 7.331c-.496 3.137-1.434 6.188-2.668 9.136-1.725 4.115-3.412 8.287-6.588 11.872-1.069 1.204-1.838 2.605-3.002 3.734-2.401 2.334-4.212 5.022-6.643 7.345-2.002 1.913-3.924 3.875-6.201 5.571.073-.308.146-.615.239-1.019-.996.529-.997.558-.208.999zM24.87 11.292v-1.163c-.378.322-.659.636 0 1.163zM6.601 56.324l-.294.13c.086.387.093.808.474 1.074l.299-.111-.479-1.093zm-.188-1.738c-.136.377-.451.747-.109 1.184.766-.399.342-.805.109-1.184zm5.779-32.307c.097-.199.193-.317.197-.439.002-.066-.153-.136-.238-.205-.088.11-.212.213-.248.334-.016.059.135.151.289.31zm12.553 61.223l-.293.167.467.546.233-.14-.407-.573zM9.297 26.755l.189.276.6-.354-.14-.191-.649.269zM94.51 49.341l.333.018.038-.463c-.079-.003-.223-.026-.23-.009-.06.147-.097.301-.141.454z"/></symbol><symbol viewBox="0 0 100 100" id="face3"><path d="M50 97.588c-25.089 0-45.5-21.579-45.5-48.103S24.911 1.382 50 1.382s45.5 21.579 45.5 48.103S75.089 97.588 50 97.588zm0-95.206c-24.538 0-44.5 21.13-44.5 47.103 0 25.973 19.962 47.103 44.5 47.103 24.537 0 44.5-21.13 44.5-47.103C94.5 23.512 74.537 2.382 50 2.382z"/></symbol><symbol viewBox="0 0 100 100" id="face3Skin"><ellipse fill-rule="evenodd" clip-rule="evenodd" cx="50" cy="49.485" rx="45" ry="47.603"/></symbol><symbol viewBox="0 0 100 100" id="faceOver0"><path d="M92.198 41.886l-.936-.28c.159 1.537.377 2.942.417 4.352.015.576.512 1.588-.96 1.574-.127-.001-.235.487-.392.728-.735 1.142-1.246 2.505-2.281 3.364-1.752 1.45-1.873 3.321-2.186 5.122-.175 1.012.358 2.104.384 3.16.032 1.227.463 2.535-1.04 3.518-.525.346-.584 1.256-1.253 1.893-.077-2.299-.13-4.602-.237-6.898-.047-1.031-.219-2.057-.284-3.09-.041-.652-.252-1.447.07-1.939 1.437-2.177.901-4.513.972-6.811.019-.706-.607-1.667.769-2.062.094-.026-.263-.987-.201-1.494.252-2.035-.271-3.879-1.65-5.494-1.827-2.141-2.896-4.478-2.952-7.207-.062-2.97-1.93-4.815-4.659-6.471-4.412-2.675-9.061-2.312-13.962-1.991-6.146.401-12.332.413-18.499.387-3.181-.013-6.355-.566-9.542-.706-4.479-.196-8.053 1.734-10.924 4.506-1.071 1.032-1.481 2.801-1.708 4.292-.372 2.442-1.048 4.592-2.83 6.625-1.789 2.042-2.403 4.551-1.562 7.272.425 1.376.147 2.915.325 4.367.187 1.526.549 3.035.81 4.554.109.645.224 1.301.218 1.949-.02 1.6-.068 3.199-.179 4.799-.127 1.828-.335 3.652-.506 5.465-1.562-1.879-2.906-4.75-2.268-6.898.472-1.592.5-2.891-.195-4.309-.301-.612-.522-1.266-.896-1.84-.954-1.459-1.716-3.123-3.041-4.25-1.359-1.156-1.289-2.321-1.147-3.661.055-.517.197-1.028.283-1.544.069-.409.112-.821.192-1.416l-1.171.55c-.263-5.132-.592-10.179-.758-15.228-.109-3.369 1.464-6.253 3.768-8.849.955-1.078 1.923-2.145 2.963-3.302l-.901-.236c1.556-1.567 3.099-3.134 4.654-4.689 2.116-2.118 4.794-2.747 7.818-2.15.959.188 1.477-.036 2.036-.654 2.552-2.826 5.839-4.205 9.96-4.283 2.238-.042 4.464-.555 6.723-.86l-2.099 1.777c1.805.648 3.501.395 5.16-.039a44.773 44.773 0 0 1 12.779-1.46c1.622.051 3.36.532 4.799 1.223 1.807.871 3.475 1.847 5.689 1.417.021.122.038.244.059.366-.98.271-1.961.544-3.327.925 1.45.646 2.637 1.193 3.841 1.708 2.01.859 4.26 1.43 6.012 2.596 5.167 3.44 9.348 7.683 12.199 12.915 2.034 3.734 2.854 7.554 2.1 11.702-.424 2.294-.322 4.666-.454 7.005z"/></symbol><symbol viewBox="0 0 50 50" id="layered"><path d="M43.334 23.75c0 10.079-8.171 18.25-18.25 18.25s5.417-8.171 5.417-18.25S15.005 5.5 25.084 5.5s18.25 8.171 18.25 18.25z"/><path d="M25.084 42.5c-2.194 0-3.354-.377-3.761-1.222-.615-1.275.799-3.053 2.757-5.512 2.499-3.14 5.921-7.438 5.921-12.017 0-4.578-3.422-8.877-5.921-12.017-1.958-2.459-3.373-4.236-2.757-5.512C21.73 5.376 22.89 5 25.084 5c10.339 0 18.75 8.411 18.75 18.75S35.423 42.5 25.084 42.5zm0-36.5c-2.214 0-2.743.411-2.86.656-.342.71 1.173 2.614 2.639 4.455 2.591 3.254 6.139 7.712 6.139 12.639s-3.548 9.385-6.139 12.64c-1.466 1.841-2.981 3.745-2.639 4.455.118.244.646.655 2.86.655 9.787 0 17.75-7.963 17.75-17.75 0-9.788-7.963-17.75-17.75-17.75z"/></symbol><symbol viewBox="0 0 100 100" id="mouth0"><path fill-rule="evenodd" clip-rule="evenodd" d="M12.756 49.828l-8.291 9.828c-1.126-1.3-1.203-1.706-.333-2.706 1.284-1.476 2.719-2.823 3.958-4.332 2.142-2.61 3.986-5.43 5.384-8.514.313-.69.425-1.473.626-2.213.178-.658.385-1.36 1.266-1.147.86.209.822.969.652 1.607-.214.798-.55 1.568-.874 2.333-.323.763-.694 1.506-1.146 2.479.672.584 1.306 1.297 2.083 1.779 3.488 2.161 7.148 3.931 11.083 5.195 3.928 1.263 7.97 1.806 12.014 2.355 5.782.786 11.604 1.117 17.436 1.057 4.11-.041 8.149-.847 12.204-1.475 5.321-.82 10.332-2.545 15.213-4.745 1.517-.685 3.09-1.243 4.627-1.886.538-.224 1.044-.526 1.71-.867-.648-1.951-1.67-3.604-2.608-5.287.312-.572.367-1.317 1.282-1.262.826.048 1.053.667 1.332 1.257 1.04 2.197 1.971 4.457 3.164 6.567.557.985 1.636 1.669 2.449 2.518.437.454.966.916 1.154 1.475.125.369-.16 1.05-.484 1.343-.233.211-1.003.189-1.246-.035-.95-.886-1.821-1.864-2.657-2.861-1.012-1.207-.992-1.249-2.488-.649-4.133 1.661-8.209 3.478-12.404 4.957-2.551.899-5.271 1.338-7.936 1.892a77.987 77.987 0 0 1-6.134 1.026c-2.06.26-4.139.496-6.212.526-5.894.087-11.793-.092-17.637-.848-4.936-.639-9.928-1.19-14.617-3.012-3.36-1.306-6.844-2.382-9.776-4.629-.88-.675-1.893-1.177-2.794-1.726z"/></symbol><symbol viewBox="0 0 100 100" id="mouth0a"><g fill-rule="evenodd" clip-rule="evenodd"><path d="M9.033 38.2l-5.165 7.229c-.569-.279-.945-.414-1.268-.631-.846-.564-1.069-1.511-.333-2.184 3.112-2.838 4.996-6.558 7.288-9.981 1.108-1.655 2.071-3.406 3.12-5.1.206-.333.504-.608.824-.985.315.162.623.27.873.457 1.091.816 1.159 1.168.421 2.311-.939 1.457-1.901 2.899-2.908 4.429.33.38.561.818.924 1.037 2.452 1.486 4.858 3.077 7.423 4.342 2.728 1.345 5.796 1.559 8.78 1.869 4.243.439 8.488.479 12.768.182 4.592-.319 9.218-.156 13.829-.187 3.692-.023 7.308-.566 10.909-1.375 4.431-.995 8.691-2.507 12.947-4.022 2.381-.848 4.655-2 6.956-3.062a6.79 6.79 0 0 0 1.667-1.108c1.369-1.235 1.349-1.256 3.191-.39-.233-1.838-.44-3.511-.664-5.181-.063-.463-.252-.915-.267-1.376-.022-.766.962-1.388 1.543-.916.685.557 1.467 1.083 1.396 2.248-.196 3.239.386 6.396 1.389 9.46.277.847.896 1.587 1.386 2.359.482.758.998 1.496 1.503 2.247-1.586.981-2.236.915-3.073-.234-.543-.745-1.004-1.548-1.627-2.521-.438.656-.843 1.104-1.07 1.627-1.304 3.002-2.568 6.023-3.844 9.037-.235.555-.425 1.131-.702 1.663-2.064 3.958-4.125 7.918-6.239 11.851-.467.868-1.138 1.627-1.733 2.422-.556.744-1.139 1.467-1.702 2.205-.202.264-.341.591-.579.815-1.605 1.505-3.299 2.924-4.829 4.498-2.631 2.707-5.839 4.402-9.292 5.772-1.857.738-3.66 1.531-5.679 1.813-3.493.488-6.925.213-10.35-.479-1.766-.357-3.533-.704-5.291-1.097-5.227-1.168-9.457-3.971-12.825-8.062-2.333-2.835-4.542-5.773-6.777-8.689-4.668-6.09-7.782-13.072-11.35-19.795-.392-.735-.885-1.414-1.57-2.498zm80.621-4.099c-1.006.507-1.747.952-2.541 1.268-6.128 2.438-12.257 4.816-18.672 6.503-4.525 1.191-9.05 1.602-13.65 1.715-4.206.104-8.42-.018-12.621.178-5.955.28-11.861.283-17.735-.99-3.44-.746-6.692-1.779-9.503-3.977-.792-.62-1.694-1.103-2.894-1.872.342 1.051.448 1.644.714 2.154 2.156 4.134 4.338 8.255 6.521 12.375.504.95 1.058 1.721 2.356 1.804.886.055 1.735.633 2.61.948 1.18.424 2.345 1.064 3.559 1.182 3.844.373 7.705.699 11.564.767 8.607.149 17.151-.544 25.684-1.803 6.046-.89 11.8-2.671 17.586-4.458.705-.218 1.105-.506 1.417-1.203 1.627-3.653 3.371-7.253 4.979-10.914.464-1.052.977-2.182.626-3.677zM32.059 68.709c1.094 1.015 1.98 1.915 2.953 2.71.611.5 1.33.888 2.04 1.249 4.038 2.056 8.382 3.048 12.84 3.601 2.523.311 5.098.475 7.549-.257 5.244-1.562 10.051-3.963 13.854-8.038.708-.76 1.33-1.601 2.166-2.615-1.724-.399-3.127-.765-4.545-1.046-5.221-1.031-10.052-.173-14.368 3.057-.929.694-1.615.323-2.496-.258-4.561-3.002-9.401-3.604-14.44-1.279-1.806.833-3.538 1.825-5.553 2.876z"/><path fill="#FFF" d="M89.654 34.101c.351 1.495-.162 2.625-.625 3.677-1.608 3.661-3.353 7.261-4.979 10.914-.312.697-.712.985-1.417 1.203-5.786 1.787-11.54 3.568-17.586 4.458-8.532 1.259-17.077 1.952-25.684 1.803-3.859-.067-7.72-.394-11.564-.767-1.214-.117-2.379-.758-3.559-1.182-.875-.315-1.724-.894-2.61-.948-1.298-.083-1.852-.854-2.356-1.804-2.183-4.12-4.366-8.24-6.521-12.375-.266-.51-.373-1.103-.714-2.154 1.2.769 2.102 1.252 2.894 1.872 2.811 2.198 6.063 3.231 9.503 3.977 5.874 1.273 11.78 1.27 17.735.99 4.2-.196 8.415-.075 12.621-.178 4.601-.113 9.125-.523 13.65-1.715 6.415-1.687 12.544-4.064 18.672-6.503.793-.316 1.534-.762 2.54-1.268z"/><path fill="#F55555" d="M32.059 68.709c2.015-1.051 3.747-2.043 5.552-2.877 5.039-2.324 9.879-1.723 14.44 1.279.881.581 1.567.952 2.496.258 4.316-3.229 9.147-4.088 14.368-3.057 1.418.281 2.821.646 4.545 1.046-.836 1.015-1.458 1.855-2.166 2.615-3.803 4.075-8.609 6.476-13.854 8.038-2.451.731-5.026.567-7.549.257-4.458-.553-8.802-1.545-12.84-3.601-.709-.361-1.428-.749-2.04-1.249-.972-.794-1.858-1.694-2.952-2.709z"/></g></symbol><symbol viewBox="0 0 100 100" id="mouth0b"><g fill-rule="evenodd" clip-rule="evenodd"><path d="M23.953 23.738c3.421.305 7.076.479 10.678 1.009 2.183.32 4.498.818 6.378 1.892 3.687 2.105 7.639 2.957 11.729 3.214 3.627.227 7.304.648 10.911-.381 3.42-.976 6.843-1.88 10.174-3.201 4.065-1.613 8.3-2.813 12.762-2.763 3.768.042 6.519 1.691 8.796 4.769 2.52 3.403 2.905 7.27 3.426 11.18.806 6.028-1.882 10.911-4.872 15.834-2.477 4.074-5.773 7.372-8.891 10.864-2.438 2.73-5.512 4.572-8.885 5.796a101.626 101.626 0 0 1-10.685 3.216c-2.734.664-5.564.985-8.371 1.29-5.567.604-11.155.762-16.732.14-2.368-.264-4.715-.729-7.067-1.132-.509-.087-1.078-.188-1.481-.476-2.611-1.86-5.759-2.332-8.641-3.482-2.537-1.013-4.925-2.424-7.315-3.771-2.706-1.527-4.782-3.697-6.247-6.473-.622-1.179-1.484-2.229-2.208-3.358-.796-1.242-1.673-2.413-1.968-3.954-.189-.991-.712-1.993-1.325-2.811-1.392-1.857-1.309-3.836-.957-5.962.336-2.025.488-4.083.661-6.132.179-2.132.873-4.033 2.151-5.764 1.81-2.451 3.586-4.884 6.271-6.523 3.55-2.169 7.375-3.099 11.708-3.021zm-7.997 17.044c2.578 2.207 6.16 3.327 9.693 4.476 2.464.803 5.005 1.562 7.565 1.833 3.763.399 7.572.392 11.363.472 3.494.073 7.028.367 10.476-.031 5.461-.631 10.887-1.64 16.283-2.713 3.922-.779 7.789-1.833 11.371-3.745 1.348-.72 2.504-1.754 2.734-3.075.646-3.707 1.192-7.477-.012-11.336-2.443.014-4.723.655-6.979 1.353A666.82 666.82 0 0 0 66.563 31.8c-3.08 1.014-6.219 1.439-9.449 1.235-.814-.052-1.634-.154-2.445-.109-4.978.271-9.504-1.257-13.981-3.234-2.758-1.218-5.55-2.487-8.747-2.268-1.469.101-2.963-.236-4.449-.319-2.302-.129-4.605-.269-6.909-.286-.922-.006-1.881.049-2.499 1.11-.247.425-1.12.562-1.736.67-.535.092-1.109-.043-1.462-.065-.321 1.142-.384 2.138-.86 2.865-.578.883-.516 1.562-.192 2.485.733 2.092 1.314 4.235 2.122 6.898zm30.866 33.107c2.741-.223 5.479-.502 8.223-.655 5.613-.313 11.066-1.415 16.377-3.217 4.091-1.388 8.135-2.894 11.201-6.156 1.066-1.136 2.116-2.287 3.192-3.413 1.308-1.367 1.329-1.905.079-3.664-.958-1.349-1.735-1.561-3.231-.916-.814.351-1.623.739-2.471.986a679.678 679.678 0 0 1-11.601 3.284c-1.578.429-3.18.854-4.798 1.028-5.624.603-11.251 1.346-16.895 1.558-6.273.236-12.486-.4-18.027-3.884-.555-.349-1.249-.479-1.88-.705-1.607-.579-3.195-1.226-4.832-1.711-1.125-.332-2.327-.658-3.475-.604-2.39.113-3.371 1.924-4.041 3.916-.607 1.806-.27 3.237 1.34 4.335 1.961 1.337 4.002 2.614 6.152 3.606 3.637 1.68 7.698 2.307 11.193 4.387.305.182.717.182 1.077.273a50.974 50.974 0 0 0 12.417 1.552zm-21.203-25.63c-2.298 2.271-2.228 3.823.073 5.452 1.021.723 2.032 1.488 3.141 2.052a32.361 32.361 0 0 0 12.614 3.466c5.733.384 11.411-.143 17.113-.774 6.432-.713 12.502-2.719 18.605-4.354 1.488-2.716.623-4.936-1.067-7.086-.347.07-.637.117-.92.188-7.334 1.798-14.734 3.192-22.305 3.429a126.42 126.42 0 0 1-8.923-.01c-6.163-.243-12.437.36-18.331-2.363zM88.473 26.91l-.361 11.354c2.578-.793 3.143-1.471 3.21-3.723.037-1.233.021-2.471.09-3.704.153-2.766-.007-3.022-2.735-3.958-.064-.021-.148.021-.204.031zm.125 30.371l2.807-4.236c-.433-.898-.72-1.64-1.136-2.301-.212-.338-.643-.74-.992-.758-1.918-.099-3.713.27-5.424 1.778 2.676.844 3.593 2.895 4.745 5.517zm-77.007.916c.53-.999.93-1.857 1.423-2.658.489-.793 1.071-1.529 1.604-2.281l-1.46-2c-2.144.114-3.116 1.613-3.588 3.116-.493 1.572.978 2.595 2.021 3.823zm-4.056-6.841l3.359-2.867c-1.634-1.933-1.634-1.933-4.515-.874-.293 1.349.702 2.313 1.156 3.741zm84.923-.232c.259-.477.555-.769.535-1.036-.054-.703-.587-1.196-1.943-1.927l1.408 2.963zm-11.839-1.309c-.794 1.079-.582 1.901.618 2.471l-.618-2.471zM11.741 34.789c-.623 1.588-.217 2.265 1.182 3.077l-1.182-3.077z"/><path fill="#FFF" d="M15.956 40.782c-.807-2.663-1.388-4.806-2.122-6.896-.323-.922-.385-1.602.192-2.485.476-.728.539-1.724.86-2.865.354.022.928.157 1.462.065.616-.108 1.489-.246 1.736-.67.617-1.061 1.577-1.117 2.499-1.11 2.304.017 4.607.156 6.909.286 1.486.083 2.98.419 4.449.319 3.197-.219 5.988 1.05 8.747 2.268 4.477 1.977 9.003 3.505 13.981 3.234.812-.045 1.631.057 2.445.109 3.23.204 6.369-.221 9.449-1.235a666.82 666.82 0 0 1 11.887-3.784c2.257-.698 4.536-1.339 6.979-1.353 1.204 3.859.658 7.629.012 11.336-.23 1.32-1.387 2.355-2.734 3.075-3.582 1.912-7.449 2.966-11.371 3.745-5.396 1.073-10.822 2.082-16.283 2.713-3.448.398-6.982.104-10.476.031-3.791-.08-7.601-.073-11.363-.472-2.56-.272-5.101-1.031-7.565-1.833-3.533-1.152-7.116-2.271-9.693-4.478zM46.822 73.889a51.002 51.002 0 0 1-12.416-1.551c-.36-.092-.771-.092-1.077-.273-3.495-2.08-7.557-2.707-11.193-4.387-2.15-.992-4.191-2.27-6.152-3.606-1.61-1.098-1.947-2.529-1.34-4.335.669-1.992 1.651-3.803 4.041-3.916 1.148-.055 2.351.271 3.475.604 1.636.485 3.224 1.132 4.832 1.711.631.227 1.325.356 1.88.705 5.542 3.483 11.754 4.12 18.027 3.884 5.644-.212 11.271-.955 16.895-1.558 1.618-.174 3.22-.6 4.798-1.028a682.284 682.284 0 0 0 11.601-3.284c.848-.247 1.656-.636 2.471-.986 1.496-.645 2.273-.433 3.231.916 1.25 1.759 1.229 2.297-.079 3.664-1.076 1.126-2.126 2.277-3.192 3.413-3.066 3.263-7.11 4.769-11.201 6.156-5.311 1.802-10.764 2.903-16.377 3.217-2.745.152-5.483.431-8.224.654z"/><path fill="#F55555" d="M25.619 48.259c5.894 2.724 12.168 2.12 18.33 2.361 2.97.117 5.951.103 8.923.01 7.57-.236 14.971-1.631 22.305-3.429.283-.07.573-.118.92-.188 1.69 2.15 2.556 4.37 1.067 7.086-6.104 1.636-12.174 3.642-18.605 4.354-5.702.632-11.38 1.158-17.113.774a32.366 32.366 0 0 1-12.614-3.466c-1.109-.563-2.12-1.329-3.141-2.052-2.3-1.627-2.37-3.179-.072-5.45z"/><path fill="#FFF" d="M88.473 26.91c.057-.009.141-.051.203-.03 2.729.936 2.889 1.192 2.735 3.958-.068 1.232-.053 2.47-.09 3.704-.067 2.252-.632 2.93-3.21 3.723l.362-11.355zM88.598 57.281c-1.151-2.622-2.068-4.673-4.745-5.517 1.711-1.508 3.506-1.877 5.424-1.778.35.018.78.42.992.758.416.661.703 1.402 1.136 2.301l-2.807 4.236zM11.591 58.197c-1.042-1.229-2.514-2.251-2.021-3.823.472-1.503 1.444-3.002 3.588-3.116l1.46 2c-.534.752-1.116 1.488-1.604 2.281-.493.801-.893 1.659-1.423 2.658zM7.535 51.356c-.454-1.429-1.449-2.392-1.156-3.741 2.881-1.059 2.881-1.059 4.515.874l-3.359 2.867zM92.458 51.124l-1.408-2.962c1.356.73 1.89 1.224 1.943 1.927.02.266-.276.558-.535 1.035zM80.619 49.815l.618 2.471c-1.2-.569-1.412-1.391-.618-2.471zM11.741 34.789l1.182 3.077c-1.399-.813-1.804-1.49-1.182-3.077z"/></g></symbol><symbol viewBox="0 0 100 100" id="mouth0c"><g fill-rule="evenodd" clip-rule="evenodd"><path d="M98.002 46.283c0 1.074-.084 2.156.015 3.221.335 3.589-.811 6.711-2.927 9.523-.979 1.301-1.974 2.612-3.12 3.76-2.315 2.315-5.032 3.88-8.334 4.522-3.204.623-6.327 1.656-9.518 2.365-1.276.284-2.646.314-3.961.232-5.405-.342-10.818-.65-16.204-1.208-3.682-.381-7.31-1.266-10.987-1.714-2.934-.357-5.883-.25-8.855.058-4.745.492-9.567 1.397-14.278.047-3.429-.981-6.9-2.031-9.806-4.296-.694-.541-1.487-.955-2.19-1.486-3.594-2.718-5.304-6.39-5.505-10.846-.143-3.161-.015-6.272 1.23-9.243 1.991-4.747 5.008-8.392 10.261-9.703 1.089-.272 2.129-.738 3.209-1.054 2.247-.656 4.494-.362 6.739.06 3.646.686 7.288 1.349 11.01 1.587 2.308.147 4.584.765 6.88 1.135 3.223.52 6.405 1.182 9.727 1.118 3.257-.062 6.527.47 9.779-.122 2.223-.405 4.433-.878 6.646-1.335 3.144-.65 6.272-1.375 9.43-1.949a58.824 58.824 0 0 1 6.372-.792c1.564-.11 3.147.036 4.722.09.311.011.627.205.924.17 2.502-.285 4.236 1.277 5.771 2.764 1.527 1.482 2.343 3.605 2.63 5.733.326 2.429.327 4.902.47 7.355l-.13.008zM13.276 34.549c-.38.837-.662 1.737-1.158 2.498-1.186 1.819-1.784 3.759-1.438 5.916.238 1.484.572 2.954.913 4.418.081.346.291.726.558.955 1.859 1.594 3.595 3.353 6.051 4.104 1.868.57 3.739.988 5.682 1.271 3.859.562 7.669 1.447 11.517 2.101 2.234.38 4.499.791 6.752.801 5.102.021 10.219-.015 15.308-.363 7.174-.491 14.323-1.393 21.244-3.439 3.179-.939 6.685-1.517 8.647-4.764.38-.629 1.057-1.239 1.097-1.889.212-3.446 1.279-7.008-1.171-10.183a1.342 1.342 0 0 1 .239-1.885c.538-.434 1.562-.3 2.017.322.474.651.993 1.359 1.17 2.118.299 1.28.407 2.617.475 3.936.076 1.477.019 2.959.019 4.44l.394.126c.778-1.024 1.586-2.027 2.328-3.077 1.057-1.492 1.353-3.078.41-4.757a1.48 1.48 0 0 1-.14-.351c-.469-1.977-1.974-2.921-3.726-3.367a15.787 15.787 0 0 0-4.497-.486c-4.786.203-9.532.789-14.206 1.903-2.998.715-5.978 1.669-9.022 1.989-3.62.381-7.303.139-10.954.273-4.063.15-8.013-.517-11.955-1.37-1.716-.371-3.456-.644-5.192-.916-1.99-.312-4-.506-5.979-.875-1.904-.356-3.781-.86-5.666-1.318-3.506-.853-6.721.036-9.717 1.869zM4.958 51.623c.068 3.591 2.296 5.831 4.713 7.875 1.142.966 2.52 1.675 3.848 2.394 3.89 2.104 8.018 3.324 12.487 3.045 2.009-.126 4.01-.363 6.013-.567 3.896-.396 7.782-.703 11.682.055 2.659.517 5.333 1.005 8.021 1.299 4.943.539 9.896 1.019 14.857 1.349 4.622.307 9.17-.194 13.527-1.931.693-.276 1.471-.332 2.189-.555 1.255-.388 2.611-.627 3.717-1.28 3.338-1.972 6.203-4.463 7.747-8.179-1.635-3.846-1.635-3.846-3.006-4.766l-1.576 1.903.727 2.811c-1.92.386-2.212-1.76-3.194-1.844-3.2.945-6.05 1.729-8.862 2.629-6.17 1.974-12.576 2.487-18.959 3.124-2.258.226-4.562.039-6.809.329-4.744.614-9.453.177-14.142-.355-3.423-.389-6.795-1.225-10.193-1.841-2.467-.447-4.971-.732-7.402-1.323-2.545-.619-5.119-1.263-7.149-3.153-.71-.661-1.624-1.104-2.521-1.698l-1.955 2.281c-1.641-.411-1.641-.411-1.053-2.898-1.292-.294-1.847.801-2.707 1.296zm87.676-3.433l2.035 4.173.424-.126v-7.319c-.999 1.331-1.735 2.309-2.459 3.272zM8.25 45.372l-.303-6.836c-2.767 2.824-2.699 4.4.303 6.836zm-3.06.117l-.461.26v2.842l2.303-1.111-1.842-1.991z"/><path fill="#FFF" d="M13.276 34.549c2.996-1.833 6.21-2.722 9.716-1.87 1.885.458 3.762.962 5.666 1.318 1.979.369 3.989.563 5.979.875 1.736.271 3.476.544 5.192.916 3.942.853 7.891 1.52 11.955 1.37 3.651-.134 7.334.107 10.954-.273 3.045-.32 6.024-1.274 9.022-1.989 4.674-1.114 9.42-1.7 14.206-1.903a15.823 15.823 0 0 1 4.497.486c1.752.446 3.257 1.39 3.726 3.367.029.121.08.242.14.351.942 1.68.646 3.266-.41 4.757-.742 1.05-1.55 2.053-2.328 3.077l-.394-.126c0-1.48.058-2.963-.019-4.44-.067-1.319-.176-2.656-.475-3.936-.177-.759-.696-1.467-1.17-2.118-.455-.623-1.479-.756-2.017-.322a1.34 1.34 0 0 0-.239 1.885c2.45 3.175 1.383 6.737 1.171 10.183-.04.65-.717 1.26-1.097 1.889-1.963 3.247-5.469 3.824-8.647 4.764-6.921 2.047-14.07 2.948-21.244 3.439-5.089.349-10.206.384-15.308.363-2.253-.01-4.519-.421-6.752-.801-3.847-.653-7.658-1.538-11.517-2.101a38.174 38.174 0 0 1-5.682-1.271c-2.456-.751-4.192-2.51-6.051-4.104-.267-.229-.477-.609-.558-.955-.34-1.464-.675-2.935-.913-4.418-.346-2.156.252-4.096 1.438-5.916.497-.76.779-1.66 1.159-2.497z"/><path fill="#FFF" d="M4.958 51.623c.859-.495 1.415-1.59 2.708-1.299-.588 2.487-.588 2.487 1.053 2.898l1.955-2.281c.897.594 1.811 1.037 2.521 1.698 2.03 1.891 4.604 2.534 7.149 3.153 2.431.591 4.935.876 7.402 1.323 3.398.616 6.771 1.452 10.193 1.841 4.688.532 9.398.97 14.142.355 2.246-.29 4.551-.104 6.809-.329 6.383-.637 12.789-1.15 18.959-3.124 2.812-.9 5.662-1.684 8.862-2.629.982.084 1.274 2.229 3.194 1.844l-.727-2.811 1.576-1.903c1.371.92 1.371.92 3.006 4.766-1.544 3.716-4.409 6.207-7.747 8.179-1.105.653-2.462.893-3.717 1.28-.719.223-1.496.278-2.189.555-4.357 1.736-8.905 2.237-13.527 1.931-4.961-.33-9.914-.81-14.857-1.349-2.689-.294-5.363-.782-8.021-1.299-3.899-.758-7.785-.45-11.682-.055-2.003.204-4.004.441-6.013.567-4.469.279-8.598-.94-12.487-3.045-1.328-.719-2.706-1.428-3.848-2.394-2.417-2.041-4.645-4.281-4.714-7.872zM92.634 48.19c.725-.963 1.46-1.941 2.459-3.272v7.319l-.424.126-2.035-4.173zM8.25 45.372c-3.003-2.437-3.07-4.012-.303-6.836l.303 6.836zM5.19 45.489l1.842 1.991-2.303 1.111v-2.842l.461-.26z"/></g></symbol><symbol viewBox="0 0 100 100" id="mouth0e"><path fill-rule="evenodd" clip-rule="evenodd" d="M10.27 54.137c3.825-3.763 8.067-6.469 12.757-8.53 4.218-1.854 8.311-4.029 12.62-5.624 3.027-1.12 6.311-1.597 9.511-2.195 5.264-.984 10.591-1.375 15.923-.804 2.837.304 5.669.866 8.428 1.597 1.739.46 3.409 1.32 4.985 2.22 3.801 2.168 7.574 4.392 11.265 6.741 1.734 1.104 3.251 2.55 5.112 4.038 1.006-.499 2.197-1.081 3.38-1.678 1.138-.575 1.881-.368 2.559.736.54.878.284 1.822-.641 2.455-1.497 1.022-2.983 2.061-4.479 3.087-.191.132-.417.353-.604.331-3.257-.364-5.888 1.806-8.974 2.21-1.233.162-1.929-.236-2.958-1.049 2.349-2.384 5.657-2.402 8.333-4.199-.388-.499-.658-1.092-1.118-1.4a402.585 402.585 0 0 0-8.407-5.461c-1.007-.64-2.203-1.029-3.098-1.786-2.765-2.341-6.175-2.984-9.52-3.553-7.866-1.336-15.737-.773-23.513.79-4.457.896-8.681 2.6-12.787 4.575-4.092 1.969-8.369 3.595-11.979 6.443-1.12.884-2.134 1.901-3.189 2.864-.859.784-.835 1.668-.21 2.561.363.52.799.989 1.208 1.476.359.426.774.812 1.083 1.271.684 1.017.677 2.594-.072 3.054-1.012.623-1.833-.088-2.544-.675-.541-.445-.93-1.082-1.355-1.657-1.091-1.473-2.112-3.002-3.268-4.421-.585-.719-1.419-1.23-2.11-1.868-.629-.58-1.322-1.137-1.78-1.839-.222-.342-.148-1.121.107-1.474.405-.56 1.079-1.011 1.853-.524 1.139.714 2.251 1.475 3.482 2.288z"/></symbol><symbol viewBox="0 0 100 100" id="mouth0f"><g fill-rule="evenodd" clip-rule="evenodd"><path d="M54.732 45.048c-.082 3.367-3.037 5.996-5.796 5.722-1.575-.156-2.941-1.658-3.289-3.611-.575-3.24 1.332-6.523 4.437-7.636 1.293-.464 3.397.698 3.956 2.355.403 1.197.548 2.48.692 3.17zM58.225 54.621c.794.721 1.319 1.157 1.789 1.632 1.519 1.529 1.224 2.795-.834 3.905-5.725 3.094-12.157 1.735-16.4-2.89-1.056-1.15-1.855-2.481-2.771-3.727 1.995-1.151 2.911-1.055 4.036.332.785.968 1.469 1.999 2.302 2.934 2.136 2.401 6.413 2.965 9.478 1.307.644-.349 1.129-.654 1.149-1.474.011-.576.683-1.152 1.251-2.019zM45.095 38.279c-.437-.081-.753-.109-1.05-.2-1.657-.51-2.02-1.761-.819-2.953 1.808-1.795 4.052-2.783 6.497-3.361.46-.109.925-.201 1.39-.289 2.518-.479 5.164 1.614 5.305 4.163.049.879-.41 1.487-1.16 1.524-.453.022-1.066-.493-1.373-.931-.336-.479-.402-1.146-.631-1.873-3.224.387-6.049 1.161-8.159 3.92zM83.427 71.11l.197.081c-.153.17-.304.344-.468.504-.018.018-.113-.043-.173-.067l.444-.518z"/></g></symbol><symbol viewBox="0 0 50 50" id="nose0"><path fill-rule="evenodd" clip-rule="evenodd" d="M44.195 33.136c.146 1.305.274 2.61.438 3.912.338 2.693-.973 3.739-3.052 4.635-2.159.929-4.36 1.325-6.693.71-1.311-.346-2.413.143-3.221 1.18-.667.857-1.562 1.255-2.522 1.658-1.977.827-3.986 1.328-6.112.842-.979-.225-1.914-.646-2.863-.994-.178-.065-.333-.2-.495-.309-2.514-1.684-2.532-1.738-5.296-.817-2.565.854-4.908.348-7.139-.949-1.075-.623-1.735-1.665-2.311-2.758-1.169-2.217-1.058-3.738.595-5.551.718-.787 1.556-1.474 2.389-2.146.736-.593 1.481-.521 1.928.082.556.751.423 1.527-.447 2.083-1.008.644-1.814 1.453-2.417 2.484-.675 1.153-.656 1.762.235 2.751 1.634 1.813 4.128 2.464 6.644 1.237a10.834 10.834 0 0 1 2.039-.735c.895-.232 1.692-.019 2.453.575.917.716 1.924 1.316 2.905 1.946.945.606 2.04.719 3.101.664 2.52-.129 4.793-.842 6.152-3.215.608-1.059 1.542-1.225 2.615-1.057.481.074.963.18 1.426.331 2.1.688 4.11.428 6.106-.439 1.551-.675 2.065-1.515 1.89-3.196a40.231 40.231 0 0 1-.216-3.64c-.004-.406.172-.867.404-1.205.155-.227.594-.427.846-.372.265.06.599.409.654.682.104.516.03 1.067.03 1.604l-.066.007z"/></symbol><symbol viewBox="0 0 50 50" id="nose1"><path fill-rule="evenodd" clip-rule="evenodd" d="M38.113 28.057c1.109-.152 1.717.269 2.248 1.007 1.481 2.051 1.911 4.388 1.728 6.809-.116 1.56-1.376 2.564-2.519 3.466-1.56 1.229-3.273 2.204-5.213 2.783-.438.131-.771.806-1.037 1.295-1.045 1.923-2.578 3.384-4.298 4.681-1.43 1.076-3.012 1.33-4.711.822-1.578-.473-3.206-.767-4.676-1.608-1.681-.961-3.124-2.125-4.158-3.783-.44-.705-.957-1.182-1.935-1.292-1.932-.217-3.411-1.344-4.53-2.919-.591-.828-1.307-1.618-1.673-2.543-.383-.962-.706-2.115-.534-3.094.348-1.987.875-3.999 2.631-5.344 1.201-.918 2.62-1.025 4.021-.895.869.082 1.042.899 1.053 1.834-.379.187-.799.568-1.221.572-2.016.015-2.788 1.442-3.365 2.964-.936 2.469.628 6.102 3.026 7.238.362.173.794.196 1.327.319-.128-1.55-.277-2.895-.334-4.242-.028-.669 0-1.38.198-2.009.715-2.271 1.402-4.56 2.318-6.75.667-1.6.808-3.168.587-4.827-.045-.339-.055-.685-.134-1.015-.352-1.477-.297-2.934.006-4.424.375-1.848-.315-3.578-.987-5.228-1.293-3.179-1.337-6.353-.295-9.567.492-1.518.98-1.971 2.657-2.746-.231 1.092-.422 2.071-.647 3.041-.524 2.256-.83 4.52-.128 6.791.272.883.576 1.767.974 2.599.958 2.001 1.213 4.08.898 6.26-.237 1.649-.231 3.283.163 4.932.486 2.032-.166 3.921-.898 5.803-.667 1.714-1.311 3.452-1.748 5.233-.583 2.379-.167 4.726.604 7.035.635 1.905 1.962 3.089 3.694 3.921 1.307.628 2.528 1.387 4.102 1.389 1.16.001 2.139-.333 2.971-.973 1.455-1.119 2.375-2.699 3.093-4.359.713-1.647 1.22-3.371 1.405-5.165.06-.576.004-1.163-.001-1.745-.031-3.812-.621-7.549-1.532-11.243-.463-1.879-.098-3.637.74-5.369 2.458-5.074 2.807-10.162-.077-15.225-.376-.659-.678-1.359-1.123-2.262.555-.003.903-.105 1.15.01 1.133.522 1.928 1.343 2.508 2.502 1.131 2.258 2.051 4.55 1.963 7.116-.108 3.136-.567 6.211-1.996 9.055-.783 1.563-.903 3.107-.423 4.812 1.132 4.006 1.328 8.148 1.49 12.28.037.954-.156 1.915-.251 2.955.272.022.495.111.628.039 3.132-1.733 4.76-3.651 3.511-7.126-.346-.965-.763-1.902-1.117-2.863-.095-.257-.082-.555-.133-.947z"/></symbol><symbol viewBox="0 0 50 50" id="nose2"><path fill-rule="evenodd" clip-rule="evenodd" d="M10.438 35.372c1.051-.991 1.617-.968 2.41-.005 1.018 1.233 1.986 2.52 3.105 3.656 2.264 2.299 4.859 4.079 8.197 4.366a7.014 7.014 0 0 0 2.447-.231c2.165-.606 4.153-1.621 5.966-2.954 1.1-.807 1.812-1.884 2.168-3.205.147-.554.35-1.094.513-1.597 1.76-.101 2.443.771 1.995 2.278-.669 2.237-1.964 3.929-3.91 5.263a17.518 17.518 0 0 1-7.404 2.925c-.895.133-1.878.122-2.747-.105-2.814-.736-5.387-1.969-7.404-4.156-.857-.931-1.712-1.861-2.575-2.784-.2-.212-.397-.48-.651-.58-1.349-.527-1.607-1.788-2.11-2.871z"/></symbol><symbol viewBox="0 0 50 50" id="nose4"><path fill-rule="evenodd" clip-rule="evenodd" d="M26.135 45.68c1.946.245 3.11-1.018 3.967-2.711.423-.84.845-1.691 1.143-2.581.227-.671.671-.856 1.255-.845.602.016 1.124.265 1.188.94.052.539.089 1.123-.061 1.631-.2.681-.632 1.288-.886 1.957-1.107 2.928-3.499 3.984-6.337 4.402-2.462.363-4.45-.622-6.206-2.223-.573-.523-1.111-1.087-1.654-1.643-2.069-2.116-3.283-4.644-3.494-7.597-.214-2.994-.422-5.991-.482-8.989-.058-2.889.359-5.745 1.016-8.564.754-3.241 1.45-6.496 2.235-9.729.352-1.447.883-2.849 1.287-4.282.283-1.004.556-2.019.705-3.048.104-.727.371-1.101 1.112-1.187.924-.107 1.566.105 1.687.917.118.787.019 1.655-.187 2.433-.668 2.522-1.535 4.996-2.132 7.535-.992 4.214-2.011 8.436-2.667 12.709-.375 2.436-.065 4.979-.04 7.473.007.723.123 1.443.139 2.167.094 4.191 1.69 7.643 4.983 10.286.961.773 2.005 1.179 3.429.949z"/></symbol><symbol viewBox="0 0 50 50" id="nose5"><g fill-rule="evenodd" clip-rule="evenodd"><path d="M25.454 29.19c2.478.382 4.847.667 6.914 1.906 1.313.788 2.559 1.72 3.728 2.712 1.226 1.042 1.888 2.518 2.569 3.943.249.523.049 1.082-.376 1.274-.48.216-.883.053-1.184-.356-.154-.209-.35-.427-.398-.668-.31-1.548-1.336-2.566-2.509-3.479-.475-.368-1.001-.67-1.471-1.044-1.846-1.465-4.073-1.852-6.299-2.174-.795-.114-1.649.032-2.459.166-2.316.382-4.558 1.036-6.456 2.473-1.404 1.062-2.724 2.241-4.034 3.42-.314.284-.489.758-.643 1.176-.167.454-.327.854-.908.768-.519-.079-1.067-.661-1.038-1.156.051-.858.396-1.654 1.022-2.201 1.668-1.458 3.355-2.902 5.133-4.222 1.689-1.253 3.748-1.694 5.758-2.162.905-.212 1.848-.267 2.651-.376z"/><path d="M29.855 40.181a3.19 3.19 0 0 1-2.057-1.749c-.434-.924.022-1.71.532-2.369.989-1.275 1.957-.655 2.762.48.292.411.517.982.185 1.592-.142.262-.026.655-.062.986-.083.762-.485 1.133-1.36 1.06zM19.121 35.869c1.299.013 2.109 1.299 1.666 2.306-.212.483-.458.908-.957 1.186-1.005.559-2.317-.104-2.216-1.235.057-.636.394-1.281.732-1.845.157-.261.62-.336.775-.412z"/></g></symbol></svg>